<?xml version="1.0" encoding="UTF-8" standalone="no"?>
<!DOCTYPE svg PUBLIC "-//W3C//DTD SVG 1.1//EN" "http://www.w3.org/Graphics/SVG/1.1/DTD/svg11.dtd">
<svg width="456" height="456" viewBox="0 0 456 456" fill="none" xmlns="http://www.w3.org/2000/svg">
	<path d="M227.896 450.735C307.254 450.735 371.586 385.719 371.586 305.517C371.586 225.315 307.254 160.299 227.896 160.299C148.538 160.299 84.206 225.315 84.206 305.517C84.206 385.719 148.538 450.735 227.896 450.735Z" fill="#2196F3"/>
	<path d="M95.077 249.668C95.077 249.668 105.183 214.492 138.124 153.627C171.065 92.762 226.842 6.20801 226.842 6.20801C226.842 6.20801 279.993 86.325 313.63 147.388C347.267 208.451 361.385 250.461 361.385 250.461L95.077 249.668Z" fill="#2196F3"/>
	<path opacity="0.66" d="M218.578 421.692C211.584 421.692 204.614 420.867 197.813 419.234C191.122 417.617 184.634 415.252 178.472 412.184C172.265 409.086 166.4 405.347 160.972 401.028C155.422 396.608 150.314 391.66 145.721 386.252C140.991 380.679 136.78 374.685 133.142 368.345C129.379 361.786 126.2 354.908 123.642 347.792C120.992 340.408 118.984 332.809 117.642 325.079C114.869 309.045 114.851 292.655 117.589 276.615C118.898 268.977 120.856 261.464 123.442 254.159H123.342V254.149C123.542 253.362 125.413 246.083 129.916 233.165C132.683 225.229 135.88 216.774 139.416 208.034C143.841 197.108 148.816 185.702 154.204 174.134C159.592 162.566 166.289 148.912 174.11 133.547C180.367 121.255 187.351 107.847 194.871 93.701C207.599 69.753 217.721 51.484 217.822 51.302C217.822 51.302 217.847 51.344 217.887 51.414C219.112 53.567 222.479 59.503 227.263 68.095C214.051 92.424 189.412 138.552 172.842 174.134C167.454 185.701 162.479 197.106 158.054 208.034C154.514 216.775 151.316 225.234 148.554 233.165C143.86 246.63 141.996 254.085 141.978 254.159H142.078C136.805 269.105 134.133 284.844 134.178 300.693C134.178 331.106 143.823 360.177 161.335 382.552C178.742 404.792 202.379 418.519 227.895 421.202C224.8 421.527 221.69 421.691 218.578 421.692Z" fill="white"/>
</svg>