<svg width="192" height="192" viewBox="0 0 192 192" fill="none" xmlns="http://www.w3.org/2000/svg">
<path d="M95.9562 189.783C129.37 189.783 156.457 162.408 156.457 128.639C156.457 94.8696 129.37 67.4943 95.9562 67.4943C62.5424 67.4943 35.4551 94.8696 35.4551 128.639C35.4551 162.408 62.5424 189.783 95.9562 189.783Z" fill="#2196F3"/>
<path d="M40.0324 105.123C40.0324 105.123 44.2876 90.3124 58.1575 64.6851C72.0274 39.0577 95.5124 2.6139 95.5124 2.6139C95.5124 2.6139 117.892 36.3474 132.055 62.0581C146.218 87.7689 152.162 105.457 152.162 105.457L40.0324 105.123Z" fill="#2196F3"/>
<path opacity="0.66" d="M92.0328 177.555C89.0879 177.554 86.1532 177.207 83.2897 176.52C80.4724 175.839 77.7407 174.843 75.1461 173.551C72.5327 172.247 70.0631 170.673 67.7777 168.854C65.4406 166.993 63.29 164.909 61.3562 162.632C59.3645 160.286 57.5916 157.762 56.0598 155.093C54.4752 152.331 53.1367 149.435 52.0598 146.439C50.9438 143.33 50.0986 140.13 49.5334 136.875C48.3659 130.124 48.3583 123.223 49.5111 116.469C50.0624 113.253 50.8868 110.09 51.9755 107.014H51.9334V107.01C52.0177 106.679 52.8054 103.614 54.7014 98.1747C55.8665 94.8333 57.2126 91.2733 58.7014 87.5933C60.5646 82.9928 62.6593 78.1903 64.928 73.3196C67.1966 68.4488 70.0164 62.6998 73.3094 56.2303C75.944 51.0547 78.8846 45.4093 82.0509 39.4531C87.4101 29.3697 91.672 21.6775 91.7145 21.6008C91.7145 21.6008 91.725 21.6185 91.7419 21.648C92.2577 22.5545 93.6753 25.0539 95.6897 28.6716C90.1267 38.9154 79.7524 58.3377 72.7756 73.3196C70.5069 78.1899 68.4122 82.992 66.549 87.5933C65.0585 91.2737 63.712 94.8354 62.549 98.1747C60.5726 103.844 59.7878 106.983 59.7802 107.014H59.8223C57.602 113.307 56.4769 119.934 56.496 126.608C56.496 139.413 60.557 151.653 67.9305 161.075C75.2598 170.439 85.2122 176.219 95.9558 177.348C94.6526 177.485 93.3432 177.554 92.0328 177.555Z" fill="white"/>
</svg>
