<svg width="512" height="512" viewBox="0 0 512 512" fill="none" xmlns="http://www.w3.org/2000/svg">
<path d="M255.883 506.088C344.987 506.088 417.219 433.088 417.219 343.037C417.219 252.986 344.987 179.985 255.883 179.985C166.78 179.985 94.5471 252.986 94.5471 343.037C94.5471 433.088 166.78 506.088 255.883 506.088Z" fill="#2196F3"/>
<path d="M106.753 280.329C106.753 280.329 118.1 240.833 155.087 172.493C192.073 104.154 254.7 6.97039 254.7 6.97039C254.7 6.97039 314.378 96.9263 352.146 165.488C389.914 234.05 405.766 281.219 405.766 281.219L106.753 280.329Z" fill="#2196F3"/>
<path opacity="0.66" d="M245.421 473.479C237.568 473.478 229.742 472.552 222.106 470.719C214.593 468.903 207.309 466.248 200.39 462.803C193.421 459.325 186.835 455.127 180.74 450.277C174.508 445.315 168.773 439.758 163.617 433.686C158.305 427.429 153.578 420.699 149.493 413.58C145.267 406.216 141.698 398.494 138.826 390.503C135.85 382.212 133.596 373.68 132.089 365.001C128.976 346.998 128.956 328.595 132.03 310.585C133.5 302.009 135.698 293.574 138.602 285.372H138.489V285.36C138.714 284.477 140.815 276.304 145.871 261.799C148.977 252.889 152.567 243.395 156.537 233.582C161.506 221.314 167.092 208.508 173.141 195.519C179.191 182.53 186.71 167.199 195.492 149.948C202.517 136.146 210.359 121.091 218.803 105.208C233.094 78.3192 244.459 57.8066 244.572 57.6022C244.572 57.6022 244.6 57.6494 244.645 57.728C246.021 60.1454 249.801 66.8104 255.173 76.4575C240.338 103.774 212.673 155.567 194.068 195.519C188.019 208.506 182.433 221.312 177.464 233.582C173.489 243.396 169.899 252.894 166.797 261.799C161.527 276.918 159.434 285.288 159.414 285.372H159.526C153.605 302.153 150.605 319.825 150.656 337.62C150.656 371.768 161.485 404.409 181.148 429.532C200.693 454.503 227.233 469.916 255.882 472.929C252.407 473.294 248.915 473.478 245.421 473.479Z" fill="white"/>
</svg>
