<svg width="256" height="203" viewBox="0 0 256 203" fill="none" xmlns="http://www.w3.org/2000/svg">
	<path d="M84.2 2.3C102.9 2.3 118 17.4 118 36.1C118 54.8 102.9 69.9 84.2 69.9C65.5 69.9 50.4 54.7 50.4 36.1C50.4 17.5 65.5 2.3 84.2 2.3ZM188.8 151.4C193.1 151.4 196.6 153.6 196.6 156.4C196.6 159.2 193.1 161.4 188.8 161.4C184.5 161.4 181 159.2 181 156.4C181 153.6 184.5 151.4 188.8 151.4ZM149.3 112.1L145.4 123.2C141.4 114.9 137.4 106.9 134.3 101.4C130.9 94.2 125.6 88.1 119 83.8C112.4 79.5 104.5 77 96.1 77H44.2C20.9 76.9 2 96 2 119.1V183C2 192.8 9.9 200.7 19.7 200.7H222.4L254 112.1H149.3ZM215.5 190.9H88.6V185.2C88.6 176.4 81.4 169.2 72.6 169.2H33.5V125.9C33.5 123.7 35.3 122 37.4 122C39.5 122 41.3 123.8 41.3 125.9V161.3H72.5C84.9 161.3 95.1 170.8 96.3 183H134.4L156.1 122H240L215.5 190.9Z" fill="#0067C0"/>
</svg>
