<svg width="257" height="269" viewBox="0 0 257 269" fill="none" xmlns="http://www.w3.org/2000/svg">
	<path d="M128.671 181.279C154.438 181.279 175.326 172.394 175.326 161.433C175.326 150.473 154.438 141.588 128.671 141.588C102.904 141.588 82.0161 150.473 82.0161 161.433C82.0161 172.394 102.904 181.279 128.671 181.279Z" fill="#359686"/>
	<path d="M250.143 213.483C240.738 181.638 193.528 185.171 173.151 176.026C152.774 166.881 155.955 136.197 153.372 130.859H103.663C101.084 136.197 104.266 166.885 83.8844 176.026C63.5083 185.171 16.2932 181.639 6.89172 213.483C1.70512 231.048 1.95142 236.42 0.52002 255.877C0.52002 255.877 65.2998 268.687 127.055 268.687C188.81 268.687 256.52 255.877 256.52 255.877C255.083 236.415 255.33 231.049 250.143 213.483Z" fill="#39788E"/>
	<path d="M146.824 183.038C167.201 192.183 214.416 188.651 223.817 220.495C228.757 237.221 228.767 242.891 229.995 260.201C246.218 257.825 256.516 255.877 256.516 255.877C255.084 236.42 255.331 231.049 250.144 213.483C240.738 181.638 193.528 185.171 173.151 176.026C152.775 166.881 155.956 136.197 153.372 130.859H127.051C127.055 130.859 126.448 173.897 146.824 183.038Z" fill="#2A6D7F"/>
	<path d="M164.28 169.274C153.737 156.663 155.49 135.235 153.377 130.854H103.663C101.544 135.235 103.303 156.664 92.7595 169.274C97.7892 181.108 124.804 212.777 128.52 212.777C132.231 212.777 158.833 182.07 164.28 169.274Z" fill="#E8C59E"/>
	<path d="M96.9736 162.57C105.223 169.284 114.889 175.94 128.468 177.864C142.079 175.935 151.722 169.141 159.98 162.4C153.111 149.77 155.235 134.708 153.376 130.854H103.662C101.795 134.713 103.876 149.937 96.9736 162.57Z" fill="#C69E7F"/>
	<path d="M87.5915 168.724C87.5915 168.724 98.3063 168.383 116.957 174.589C135.607 180.796 161.64 165.273 172.833 162.452C172.833 162.452 148.953 200.351 123.59 199.408C98.2253 198.469 87.5915 168.724 87.5915 168.724Z" fill="#44ADA0"/>
	<path d="M172.833 162.457C170.462 163.054 166.94 164.42 166.906 164.453C161.454 169.388 157.841 173.024 153.831 176.941C144.486 177.619 140.508 179.454 136.986 181.075C133.71 182.582 130.88 183.886 123.759 183.891C122.583 183.891 121.293 183.853 119.928 183.782C112.618 183.399 106.952 178.804 98.755 169.887C90.0604 168.152 87.5948 168.735 87.5948 168.735C87.5948 168.735 98.2287 198.474 123.592 199.418C148.953 200.356 172.833 162.457 172.833 162.457Z" fill="#3CA092"/>
	<path d="M91.3366 150.557C91.3366 150.557 98.3291 184.398 119.835 185.531C141.34 186.664 133.299 178.742 160.545 178.429L130.928 209.425C130.928 209.425 65.6743 197.824 83.5141 146.945L91.3366 150.557Z" fill="#4EB7AD"/>
	<path d="M130.928 209.425L160.54 178.424C157.112 178.462 157.032 178.392 154.59 178.643C149.294 182.246 141.794 187.717 134.981 192.283C133.038 191.212 131.051 190.709 128.814 190.709C126.746 190.709 124.722 191.14 122.579 191.596C120.09 192.127 117.512 192.672 114.444 192.672C110.623 192.672 104.279 188.007 97.8796 180.497C91.712 173.253 87.6388 165.938 87.2643 163.05C86.7953 159.405 86.9564 158.115 86.7379 151.71L83.5141 146.95C65.6735 197.829 130.928 209.425 130.928 209.425Z" fill="#44ADA0"/>
	<path d="M162.417 148.363C162.417 148.363 168.704 153.488 169.163 159.224C169.623 164.961 143.316 194.331 116.074 204.073L153.172 226.137C153.172 226.137 178.792 207.747 177.796 196.672C177.189 189.903 173.467 187.404 173.467 187.404C173.467 187.404 193.578 157.219 162.278 138.544L162.417 148.363Z" fill="#4EB7AD"/>
	<path d="M175.037 188.987C174.184 187.883 173.473 187.404 173.473 187.404C173.473 187.404 168.414 194.06 168.158 199.427C168.154 199.426 171.477 192.311 175.037 188.987Z" fill="#44ADA0"/>
	<path d="M172.833 208.027C165.716 208.022 150.171 203.124 142.648 198.37C138.21 195.568 135.029 194.354 135.029 194.354C135.636 202.518 154.898 214.778 162.024 219.044C165.66 215.878 169.732 211.976 172.833 208.027Z" fill="#44ADA0"/>
	<path d="M139.381 197.9C139.381 197.9 151.579 195.197 160.634 188.731C160.634 188.731 152.793 196.7 142.277 199.725L139.381 197.9Z" fill="#44ADA0"/>
	<path d="M169.557 211.833C169.557 211.833 145.89 204.556 137.84 196.657C129.79 188.759 124.575 194.425 114.443 194.425C104.311 194.425 86.4815 170.696 85.5284 163.272C84.808 157.673 85.2011 149.979 93.6545 141.525L92.4028 130.137C92.4028 130.137 79.877 138.391 75.4917 146.849C71.1064 155.307 73.4345 170.762 71.1773 177.125C68.9159 183.487 62.0271 183.226 65.1607 192.907C68.2942 202.588 95.5355 215.427 100.234 221.694C104.932 227.957 122.113 249.362 132.937 247.271C143.757 245.176 164.152 239.326 169.557 211.833Z" fill="#56BEB7"/>
	<path d="M165.062 225.203C166.03 223.311 166.902 221.258 167.655 219.021C149.422 218.167 128.467 208.354 128.467 208.354C141.557 218.651 157.448 223.392 165.062 225.203Z" fill="#4EB7AD"/>
	<path d="M83.4095 194.231C71.1781 184.583 71.8892 173.94 71.8892 173.94C71.723 175.148 71.4953 176.225 71.1781 177.12C70.7657 178.287 70.1921 179.23 69.5569 180.055C74.9713 190.732 83.4095 194.231 83.4095 194.231Z" fill="#4EB7AD"/>
	<path d="M126.647 224.904C126.377 224.719 125.992 224.435 125.494 224.103C125.252 223.922 124.992 223.714 124.707 223.496C124.565 223.387 124.418 223.274 124.262 223.155C124.186 223.098 124.106 223.041 124.03 222.974C123.954 222.907 123.878 222.842 123.802 222.77C123.495 222.495 123.158 222.22 122.821 221.912C122.499 221.585 122.153 221.258 121.807 220.902C121.138 220.163 120.446 219.357 119.787 218.413C119.451 217.958 119.114 217.456 118.773 216.953C118.431 216.436 118.076 215.92 117.701 215.374C116.967 214.298 116.133 213.18 115.203 212.118C114.724 211.596 114.26 211.051 113.729 210.562C113.468 210.311 113.212 210.065 112.951 209.813L112.117 209.097L111.695 208.746C111.552 208.632 111.411 208.504 111.277 208.41C111.002 208.205 110.727 207.997 110.453 207.793L110.04 207.485L109.832 207.333L109.727 207.257L109.713 207.248C109.718 207.248 109.646 207.201 109.67 207.215L109.641 207.197L109.585 207.159C109.286 206.965 108.987 206.77 108.689 206.576C108.395 206.377 108.092 206.206 107.788 206.031C107.484 205.861 107.186 205.68 106.887 205.524C106.589 205.363 106.29 205.202 105.996 205.045C105.702 204.893 105.408 204.746 105.118 204.6C103.971 204.021 102.852 203.471 101.956 202.94C101.71 202.774 101.463 202.613 101.226 202.457L101.135 202.396C101.102 202.367 101.168 202.424 101.159 202.414L101.15 202.405L101.131 202.39L101.088 202.358L100.922 202.234C100.813 202.153 100.704 202.073 100.595 201.992C100.376 201.836 100.168 201.67 99.9638 201.504C99.7596 201.338 99.5564 201.182 99.3666 201.021C98.5889 200.38 97.9158 199.745 97.3371 199.162C96.7585 198.58 96.2803 198.034 95.8956 197.574C95.5211 197.109 95.2369 196.731 95.0564 196.46C94.8758 196.189 94.7864 196.042 94.7864 196.042C94.7864 196.042 94.8151 196.213 94.9146 196.531C95.0142 196.844 95.166 197.308 95.4216 197.873C95.678 198.437 96.0281 199.105 96.4928 199.836C96.9576 200.566 97.5311 201.362 98.2279 202.173C98.394 202.381 98.5838 202.576 98.7728 202.784C98.9625 202.989 99.1523 203.202 99.3556 203.401C99.4551 203.506 99.5597 203.605 99.6635 203.709L99.8195 203.865L99.8575 203.903L99.876 203.921L99.8853 203.931C99.8803 203.926 99.9562 203.987 99.9283 203.969L100.009 204.039C100.228 204.229 100.445 204.419 100.673 204.618C101.73 205.438 102.802 206.098 103.911 206.775C104.456 207.106 105.006 207.448 105.566 207.79C105.846 207.956 106.111 208.141 106.382 208.316C106.652 208.496 106.932 208.662 107.192 208.857C107.458 209.041 107.724 209.231 107.989 209.416L108.041 209.449L108.055 209.458L108.06 209.463L108.16 209.544L108.364 209.7L108.771 210.013C109.046 210.221 109.316 210.431 109.591 210.639C109.734 210.744 109.848 210.847 109.971 210.957L110.336 211.275L111.076 211.896C111.313 212.123 111.555 212.346 111.792 212.569C112.28 213.01 112.726 213.484 113.181 213.949C113.413 214.177 113.617 214.428 113.836 214.669C114.049 214.911 114.277 215.138 114.48 215.389C114.689 215.636 114.893 215.883 115.101 216.129C115.305 216.381 115.508 216.627 115.713 216.873C116.12 217.362 116.514 217.868 116.921 218.348C117.339 218.831 117.728 219.31 118.159 219.755C118.372 219.978 118.566 220.206 118.79 220.414C119.008 220.622 119.221 220.832 119.434 221.031C119.642 221.235 119.865 221.414 120.083 221.595C120.302 221.776 120.514 221.951 120.724 222.116C121.165 222.434 121.592 222.719 121.999 222.993C122.421 223.24 122.824 223.468 123.204 223.676C123.298 223.728 123.393 223.78 123.484 223.828C123.578 223.875 123.673 223.913 123.764 223.956C123.948 224.037 124.124 224.117 124.295 224.193C124.637 224.34 124.944 224.486 125.234 224.596C125.812 224.8 126.277 224.947 126.585 225.052C126.898 225.151 127.064 225.203 127.064 225.203C127.064 225.203 126.912 225.099 126.647 224.904Z" fill="#4EB7AD"/>
	<path d="M177.101 97.9076C175.338 107.713 178.231 116.439 183.562 117.398C188.894 118.356 194.646 111.185 196.409 101.38C198.173 91.5748 195.28 82.8488 189.948 81.8899C184.617 80.9311 178.865 88.1024 177.101 97.9076Z" fill="#DDB58E"/>
	<path d="M66.9445 81.899C61.6127 82.8578 58.72 91.5838 60.4834 101.389C62.2468 111.194 67.9985 118.365 73.3302 117.407C78.6619 116.448 81.5546 107.722 79.7913 97.9166C78.0279 88.1114 72.2762 80.9401 66.9445 81.899Z" fill="#E8C59E"/>
	<path d="M182.637 39.5958L128.947 47.3711L73.7861 40.3448C73.7861 40.3448 69.1638 67.193 69.1638 79.5147C69.1638 116.783 75.8535 167.781 128.463 175.234C212.998 163.263 182.637 39.5958 182.637 39.5958Z" fill="#E8C59E"/>
	<path d="M128.468 175.234C212.999 163.263 182.637 39.5958 182.637 39.5958H169.965C173.435 91.2526 178.238 118.693 158.312 148.608C142.524 172.313 128.468 175.234 128.468 175.234Z" fill="#DDB58E"/>
	<path d="M78.384 49.7371C78.384 49.7371 91.706 62.0823 128.273 62.0823C164.84 62.0823 176.588 53.5581 176.588 53.5581V44.4745L78.384 49.7371Z" fill="#DDB58E"/>
	<path d="M189.54 41.7298C187.776 23.7281 170.405 0 128.468 0C86.5303 0 69.1587 23.7281 67.395 41.7298C67.395 41.7298 64.555 51.3211 66.5844 81.9802C70.2443 81.5821 73.8477 82.5867 76.422 83.7532L78.5459 46.9924H178.389L180.513 83.7532C183.088 82.5867 186.691 81.5821 190.351 81.9802C192.38 51.3253 189.54 41.7298 189.54 41.7298Z" fill="#917F77"/>
	<path d="M142.813 58.3179C164.441 56.5592 198.576 50.9551 193.313 2.81557C193.313 2.81557 188.174 11.3348 178.081 9.96496C164.232 8.08314 152.888 0.013504 129.923 0.013504C107.707 0.013504 66.6696 6.68886 68.0209 34.6884C69.168 58.3179 117.639 60.3709 142.813 58.3179Z" fill="#4C3626"/>
	<path d="M161.734 81.4446C147.919 81.3973 135.137 85.8628 128.277 85.8628C121.417 85.8628 108.636 81.3923 94.8201 81.4446C82.5508 81.4876 71.0068 83.4639 67.2567 84.4837C66.6502 84.6498 66.2234 85.1998 66.2234 85.8299V91.6946C66.2234 92.2446 66.5456 92.7422 67.0483 92.9649C67.5797 93.1969 68.2427 93.5714 68.6788 94.1078C69.4986 95.1175 70.9874 105.467 75.5625 109.08C78.5206 111.412 86.9217 113.508 94.2415 113.365C101.557 113.223 110.152 112.868 114.893 109.274C121.44 104.315 122.331 95.1504 123.929 92.7802C125.209 90.884 127.196 90.5854 128.276 90.5854C129.357 90.5854 131.344 90.879 132.624 92.7802C134.221 95.1504 135.113 104.315 141.66 109.274C146.405 112.867 154.996 113.223 162.311 113.365C169.626 113.508 178.032 111.417 180.99 109.08C185.565 105.467 187.054 95.1175 187.874 94.1078C188.31 93.5722 188.974 93.1977 189.505 92.9649C190.008 92.7422 190.33 92.2446 190.33 91.6946V85.8299C190.33 85.1989 189.908 84.649 189.297 84.4837C185.548 83.4639 173.999 81.4867 161.734 81.4446ZM118.019 98.7293C116.895 102.759 114.624 105.955 111.87 107.567C109.077 109.202 99.5808 110.184 95.1482 110.188C89.3172 110.193 79.693 108.6 77.5261 106.675C75.3592 104.75 74.6861 101.284 74.2028 98.3455C73.7195 95.411 72.795 90.3948 75.2698 88.0912C78.3468 85.2327 91.5786 84.2745 95.0959 84.4364C102.412 84.773 116.472 86.4085 118.587 89.8271C119.933 91.9831 118.957 95.3638 118.019 98.7293ZM182.339 98.3405C181.855 101.275 181.182 104.745 179.015 106.67C176.848 108.595 167.229 110.187 161.393 110.183C156.965 110.183 147.465 109.202 144.672 107.561C141.917 105.95 139.646 102.754 138.523 98.7242C137.584 95.3579 136.607 91.978 137.944 89.8162C140.063 86.3984 154.121 84.762 161.435 84.4255C164.948 84.2644 178.18 85.2217 181.262 88.0803C183.746 90.3906 182.817 95.406 182.339 98.3405Z" fill="#3A3A38"/>
</svg>
