<svg width="257" height="301" viewBox="0 0 257 301" fill="none" xmlns="http://www.w3.org/2000/svg">
	<path d="M79.2653 0.85849C77.8542 0.871955 76.3895 1.21238 75.055 1.95208C70.8173 4.30111 69.263 9.74697 71.6103 13.9815L81.1791 31.2601C58.1255 45.5244 42.849 69.8882 42.849 97.6953C42.849 97.812 42.8487 97.9874 42.849 98.1601C42.8491 98.221 42.8484 98.2558 42.849 98.3241C42.849 98.415 42.849 98.5477 42.849 98.5702V102.862C38.4214 97.7682 31.9128 94.5513 24.6408 94.5513C11.3183 94.5513 0.5 105.37 0.5 118.692V193.056C0.5 206.378 11.3183 217.197 24.6408 217.197C31.9128 217.197 38.4214 213.98 42.849 208.885V219.302C42.849 233.345 54.3406 244.837 68.3842 244.837H74.8637V277.918C74.8637 291.241 85.6819 302.059 99.0045 302.059C112.327 302.059 123.145 291.241 123.145 277.918V244.837H134.355V277.918C134.355 291.241 145.173 302.059 158.495 302.059C171.818 302.059 182.636 291.241 182.636 277.918V244.837H189.116C203.159 244.837 214.651 233.345 214.651 219.302V208.885C219.079 213.98 225.587 217.197 232.859 217.197C246.182 217.197 257 206.378 257 193.056V118.692C257 105.37 246.182 94.5513 232.859 94.5513C225.587 94.5513 219.079 97.7682 214.651 102.862V98.6522V98.5702C214.652 98.4386 214.651 98.3077 214.651 98.3241C214.653 98.0621 214.651 97.8533 214.651 97.6953C214.651 69.893 199.34 45.5528 176.294 31.2875L185.89 13.9815C188.237 9.74694 186.683 4.30109 182.445 1.95205C181.11 1.21235 179.646 0.871947 178.235 0.858464C175.105 0.828511 172.034 2.47778 170.416 5.39684L160.382 23.523C150.571 19.9025 139.896 17.9184 128.75 17.9184C117.615 17.9184 106.921 19.8822 97.1181 23.4956L87.0845 5.39684C85.4664 2.47777 82.3948 0.82858 79.2653 0.858464V0.85849Z" fill="white"/>
	<path d="M24.6413 100.839C14.6994 100.839 6.78857 108.75 6.78857 118.692V193.056C6.78857 202.998 14.6994 210.909 24.6413 210.909C34.5832 210.909 42.4941 202.998 42.4941 193.056V118.692C42.4941 108.75 34.5832 100.839 24.6413 100.839ZM232.86 100.839C222.918 100.839 215.007 108.75 215.007 118.692V193.056C215.007 202.998 222.918 210.909 232.86 210.909C242.801 210.909 250.712 202.998 250.712 193.056V118.692C250.712 108.75 242.801 100.839 232.86 100.839Z" fill="#A4C639"/>
	<path d="M99.0044 185.701C89.0625 185.701 81.1516 193.612 81.1516 203.554V277.918C81.1516 287.86 89.0625 295.77 99.0044 295.77C108.946 295.77 116.857 287.86 116.857 277.918V203.554C116.857 193.612 108.946 185.701 99.0044 185.701ZM158.495 185.701C148.553 185.701 140.643 193.612 140.643 203.554V277.918C140.643 287.86 148.553 295.77 158.495 295.77C168.437 295.77 176.348 287.86 176.348 277.918V203.554C176.348 193.612 168.437 185.701 158.495 185.701Z" fill="#A4C639"/>
	<path d="M79.3201 7.14661C78.8981 7.15092 78.5048 7.25981 78.1172 7.47468C76.8441 8.18034 76.4255 9.64321 77.1329 10.9195L89.7091 33.6387C65.5131 46.2285 49.17 70.1544 49.1372 97.6133H208.363C208.33 70.1544 191.987 46.2285 167.791 33.6387L180.367 10.9195C181.075 9.64321 180.656 8.18034 179.383 7.47468C178.995 7.25981 178.602 7.15063 178.18 7.14661C177.277 7.13789 176.42 7.5893 175.938 8.45891L163.198 31.4242C152.776 26.8013 141.086 24.2065 128.75 24.2065C116.414 24.2065 104.724 26.8013 94.3022 31.4242L81.562 8.45891C81.0799 7.5893 80.2235 7.13794 79.3201 7.14661ZM49.1372 103.901V219.302C49.1372 229.965 57.7214 238.549 68.3843 238.549H189.116C199.779 238.549 208.363 229.965 208.363 219.302V103.901H49.1372Z" fill="#A4C639"/>
	<path d="M92.0053 55.1823C88.3705 55.1823 85.3618 58.1909 85.3618 61.8258C85.3618 65.4606 88.3705 68.4693 92.0053 68.4693C95.6402 68.4693 98.6489 65.4606 98.6489 61.8258C98.6489 58.1909 95.6402 55.1823 92.0053 55.1823ZM165.494 55.1823C161.859 55.1823 158.851 58.1909 158.851 61.8258C158.851 65.4606 161.859 68.4693 165.494 68.4693C169.129 68.4693 172.138 65.4606 172.138 61.8258C172.138 58.1909 169.129 55.1823 165.494 55.1823Z" fill="white"/>
</svg>
