<svg width="256" height="256" viewBox="0 0 256 256" fill="none" xmlns="http://www.w3.org/2000/svg">
	<path d="M71.8052 247.64L242.492 135.076L120.924 13.5076L8.36035 184.195L71.8052 247.64Z" fill="#ED5B3A"/>
	<path d="M149.167 67.1287L34.9663 181.739L29.2358 176.008L126.245 43.7974L149.167 67.1287Z" fill="#EADAEA"/>
	<path d="M78.7638 241.09C82.4477 244.774 82.857 250.505 79.5824 253.779C76.3078 257.054 70.5774 256.645 66.8935 252.961L3.03927 189.107C-0.644623 185.423 -1.05394 179.692 2.22063 176.418C5.4952 173.143 11.2257 173.552 14.9096 177.236L78.7638 241.09Z" fill="#D32A0F"/>
	<path d="M251.088 126.48C254.772 130.164 255.181 135.895 251.907 139.169C248.632 142.444 242.902 142.035 239.218 138.351L117.649 16.7822C113.965 13.0983 113.556 7.36776 116.831 4.09319C120.105 0.818614 125.836 1.22794 129.52 4.91183L251.088 126.48Z" fill="#D32A0F"/>
	<path d="M188.871 222.262L161.856 241.909C141.799 256.645 113.556 252.142 98.8206 232.085L96.3646 228.402C81.6291 208.345 86.1316 180.102 106.188 165.366L133.204 145.719C153.26 130.983 181.504 135.485 196.239 155.542L198.695 159.226C213.431 179.283 208.928 207.935 188.871 222.262ZM116.421 180.102C104.142 188.697 101.686 205.889 110.282 218.168L113.147 221.852C121.743 234.132 138.934 236.588 151.214 227.992L178.229 208.345C190.509 199.749 192.965 182.557 184.369 170.278L181.913 166.594C173.317 154.314 156.126 151.858 143.846 160.454L116.421 180.102Z" fill="#D32A0F"/>
	<path d="M122.152 14.3262L120.924 13.5076L117.24 18.8287L122.152 14.3262Z" fill="#D32A0F"/>
	<path d="M45.6088 221.034L71.8053 247.64L242.492 135.076L187.234 79.4083L45.6088 221.034Z" fill="#D32A0F"/>
	<path d="M219.98 70.8126C218.342 70.8126 217.114 68.3567 217.114 66.7194C217.114 65.0821 218.342 62.6262 219.98 62.6262H253.135C254.772 62.6262 256 65.0821 256 66.7194C256 68.3567 254.772 70.8126 253.135 70.8126H219.98Z" fill="#F29233"/>
	<path d="M219.57 44.6161C218.342 45.844 215.886 45.0254 214.659 43.7974C213.431 42.5694 212.612 40.1135 213.84 38.8856L237.171 15.5542C238.399 14.3263 240.855 15.1449 242.083 16.3729C243.311 17.6008 244.13 20.0568 242.902 21.2847L219.57 44.6161Z" fill="#F29233"/>
	<path d="M185.187 36.0203C185.187 37.6576 187.643 38.8856 189.28 38.8856C190.918 38.8856 193.374 37.6576 193.374 36.0203V2.86525C193.374 1.22796 190.918 0 189.28 0C187.643 0 185.187 1.22796 185.187 2.86525V36.0203Z" fill="#F29233"/>
</svg>
