<svg width="256" height="256" viewBox="0 0 256 256" fill="none" xmlns="http://www.w3.org/2000/svg">
  <path d="M170.667 231.734L256 256V178.755L170.667 154.49V231.734Z" fill="#FFCD00"/>
  <path d="M205.327 107.737L170.667 151.315V154.49L256 178.755V101.51L213.872 89.5307C212.462 96.1381 209.546 102.402 205.327 107.737Z" fill="#FFDA44"/>
  <path d="M170.667 0V36.202C195.022 36.202 214.841 56.0164 214.841 80.3762C214.841 83.4622 214.512 86.5316 213.872 89.5307L256 101.51V24.2657L170.667 0Z" fill="#FFCD00"/>
  <path d="M85.3281 178.755V256L170.667 231.734V154.49L85.3281 178.755Z" fill="#FFDA44"/>
  <path d="M127.462 89.5297L85.3281 101.51V178.755L170.667 154.49V151.315L136.023 107.758C131.792 102.408 128.872 96.1391 127.462 89.5297Z" fill="#FFE477"/>
  <path d="M127.462 89.5297C126.822 86.5306 126.492 83.4612 126.492 80.3762C126.492 56.0164 146.307 36.202 170.667 36.202V0L85.3281 24.2657V101.51L127.462 89.5297Z" fill="#FFDA44"/>
  <path d="M0 154.49V231.734L85.3282 256V178.755L0 154.49Z" fill="#FFCD00"/>
  <path d="M85.3282 101.51L0 77.2448V154.49L85.3282 178.755V101.51Z" fill="#FFDA44"/>
  <path d="M85.3282 24.2657L0 0V77.2448L85.3282 101.51V24.2657Z" fill="#FFCD00"/>
  <path d="M187.135 80.3762C187.135 89.4542 179.745 96.844 170.667 96.844V151.315L205.327 107.737C209.546 102.403 212.462 96.1386 213.872 89.5307C214.512 86.5316 214.841 83.4622 214.841 80.3762C214.841 56.0164 195.022 36.202 170.667 36.202V63.9085C179.745 63.9085 187.135 71.2942 187.135 80.3762Z" fill="#CD2A00"/>
  <path d="M187.135 80.3762C187.135 71.2942 179.745 63.9085 170.667 63.9085V96.8435C179.745 96.844 187.135 89.4542 187.135 80.3762Z" fill="#D8D7DA"/>
  <path d="M126.492 80.3762C126.492 83.4617 126.822 86.5306 127.462 89.5297C128.873 96.1391 131.792 102.408 136.023 107.757L170.667 151.315V96.844C161.585 96.844 154.199 89.4542 154.199 80.3762C154.199 71.2942 161.585 63.9085 170.667 63.9085V36.202C146.307 36.202 126.492 56.0164 126.492 80.3762Z" fill="#FF3501"/>
  <path d="M170.667 63.9085C161.585 63.9085 154.199 71.2942 154.199 80.3762C154.199 89.4542 161.585 96.844 170.667 96.844V63.9085Z" fill="white"/>
</svg>
