<svg width="257" height="225" viewBox="0 0 257 225" fill="none" xmlns="http://www.w3.org/2000/svg">
	<path d="M61.8887 108.464C60.5673 108.464 59.2703 107.824 58.4826 106.642L47.8008 90.6189L26.2161 85.2229C24.0251 84.6753 22.6931 82.4552 23.2407 80.2642C23.7883 78.0731 26.0106 76.7405 28.1994 77.2887L51.3178 83.068C52.305 83.3148 53.1646 83.9204 53.7283 84.7666L65.2875 102.105C66.5404 103.984 66.0329 106.523 64.1533 107.776C63.4564 108.241 62.6681 108.464 61.8887 108.464Z" fill="#894D2F"/>
	<path d="M4.08996 166.258C3.04317 166.258 1.99695 165.859 1.19863 165.06C-0.398566 163.464 -0.398566 160.874 1.19863 159.277L24.3164 136.159C25.083 135.392 26.1231 134.961 27.2078 134.961H56.1055C58.3639 134.961 60.1946 136.792 60.1946 139.05C60.1946 141.309 58.3639 143.139 56.1055 143.139H28.9013L6.98129 165.06C6.18297 165.859 5.13618 166.258 4.08996 166.258Z" fill="#894D2F"/>
	<path d="M27.2044 224.054C26.59 224.054 25.966 223.915 25.3788 223.621C23.3588 222.611 22.5399 220.155 23.5499 218.135L35.1091 195.017C35.557 194.121 36.318 193.421 37.2478 193.049L66.1455 181.49C68.2435 180.65 70.6229 181.671 71.4613 183.768C72.3003 185.865 71.2802 188.244 69.1833 189.083L41.7291 200.065L30.8651 221.793C30.1487 223.226 28.7047 224.054 27.2044 224.054Z" fill="#894D2F"/>
	<path d="M194.376 108.464C193.597 108.464 192.808 108.241 192.112 107.776C190.232 106.524 189.724 103.985 190.977 102.106L202.536 84.7672C203.101 83.9204 203.96 83.3149 204.947 83.0686L228.065 77.2893C230.254 76.7411 232.476 78.0731 233.024 80.2648C233.572 82.4558 232.24 84.6759 230.049 85.2235L208.464 90.6195L197.782 106.643C196.994 107.824 195.698 108.463 194.376 108.464Z" fill="#894D2F"/>
	<path d="M252.175 166.258C251.128 166.258 250.082 165.859 249.283 165.06L227.363 143.14H200.159C197.901 143.14 196.07 141.309 196.07 139.051C196.07 136.792 197.901 134.962 200.159 134.962H229.057C230.141 134.962 231.181 135.392 231.948 136.159L255.066 159.278C256.663 160.874 256.663 163.464 255.066 165.061C254.268 165.859 253.221 166.258 252.175 166.258Z" fill="#894D2F"/>
	<path d="M229.06 224.054C227.561 224.054 226.116 223.226 225.4 221.793L214.536 200.065L187.082 189.083C184.985 188.245 183.965 185.865 184.804 183.768C185.642 181.67 188.024 180.65 190.119 181.49L219.017 193.049C219.947 193.421 220.708 194.121 221.155 195.017L232.714 218.135C233.724 220.155 232.906 222.611 230.886 223.621C230.299 223.915 229.675 224.054 229.06 224.054Z" fill="#894D2F"/>
	<path d="M106.246 30.657C104.925 30.657 103.628 30.0174 102.84 28.8353L88.2471 6.94531C86.9942 5.06622 87.5017 2.52697 89.3813 1.27462C91.2604 0.0222703 93.7997 0.529786 95.052 2.40887L109.645 24.2989C110.898 26.1779 110.391 28.7172 108.511 29.9695C107.814 30.4347 107.026 30.657 106.246 30.657Z" fill="#894D2F"/>
	<path d="M150.018 30.657C149.239 30.657 148.451 30.4342 147.754 29.9695C145.875 28.7172 145.367 26.1779 146.62 24.2989L161.213 2.40887C162.466 0.529787 165.005 0.0217144 166.883 1.27462C168.763 2.52698 169.271 5.06622 168.018 6.94531L153.425 28.8353C152.637 30.0174 151.34 30.657 150.018 30.657Z" fill="#894D2F"/>
	<path d="M128.133 225C167.448 225 199.319 185.161 199.319 136.017C199.319 86.8726 167.448 47.0334 128.133 47.0334C88.8171 47.0334 56.9457 86.8726 56.9457 136.017C56.9457 185.161 88.8171 225 128.133 225Z" fill="#A38671"/>
	<path d="M128.132 225C155.246 225 177.226 185.161 177.226 136.017C177.226 86.8726 155.246 47.0334 128.132 47.0334C101.019 47.0334 79.0389 86.8726 79.0389 136.017C79.0389 185.161 101.019 225 128.132 225Z" fill="#D8903A"/>
	<path d="M128.133 88.1476C125.874 88.1476 124.043 89.9783 124.043 92.2367V224.85C125.397 224.946 126.76 224.999 128.133 224.999C129.505 224.999 130.868 224.946 132.222 224.85V92.2367C132.222 89.9783 130.391 88.1476 128.133 88.1476Z" fill="#F0DEB4"/>
	<path d="M82.5731 63.0505C82.5731 43.2947 102.971 20.6944 128.132 20.6944C153.294 20.6944 173.692 43.2947 173.692 63.0505C173.692 82.8062 153.294 92.2367 128.132 92.2367C102.971 92.2367 82.5731 82.8062 82.5731 63.0505Z" fill="#704220"/>
	<path opacity="0.49" d="M148.053 25.5785C158.232 33.9662 164.727 46.0173 164.727 57.1648C164.727 76.9205 144.329 86.351 119.168 86.351C108.208 86.351 98.1545 84.5605 90.2944 80.9082C98.4737 88.5332 112.367 92.2368 128.132 92.2368C153.294 92.2368 173.692 82.8062 173.692 63.0505C173.692 48.903 163.231 33.2993 148.053 25.5785Z" fill="#D0D5D9"/>
</svg>
