<svg width="256" height="256" viewBox="0 0 256 256" fill="none" xmlns="http://www.w3.org/2000/svg">
  <path d="M128 256C198.692 256 256 198.692 256 128C256 57.3075 198.692 0 128 0C57.3075 0 0 57.3075 0 128C0 198.692 57.3075 256 128 256Z" fill="#88C5CC"/>
  <path d="M128 256C196.382 256 252.238 202.372 255.812 134.874L242 124L194 158L116 126L67.9999 170L3.7019 158.57C17.4119 214.496 67.8479 256 128 256Z" fill="#406A80"/>
  <path d="M245.264 121.688C243.988 119.886 241.492 119.456 239.688 120.736L193.484 153.464L117.52 122.298C116.084 121.708 114.44 122.002 113.298 123.05L66.7561 165.714L2.72607 154.33C3.32607 157.206 4.04807 160.032 4.84007 162.832L67.3021 173.936C67.5361 173.978 67.7701 173.998 68.0021 173.998C68.9941 173.998 69.9601 173.628 70.7061 172.946L116.834 130.662L192.484 161.7C193.75 162.216 195.192 162.056 196.316 161.262L244.316 127.262C246.116 125.988 246.542 123.49 245.264 121.688Z" fill="#F5F5F5"/>
  <path d="M194 166C198.418 166 202 162.418 202 158C202 153.582 198.418 150 194 150C189.582 150 186 153.582 186 158C186 162.418 189.582 166 194 166Z" fill="#F5F5F5"/>
  <path d="M194 150C198.42 150 202 153.58 202 158C202 162.42 198.42 166 194 166C189.58 166 186 162.42 186 158C186 153.58 189.58 150 194 150ZM194 146C187.382 146 182 151.382 182 158C182 164.618 187.382 170 194 170C200.618 170 206 164.618 206 158C206 151.382 200.618 146 194 146Z" fill="#CC584C"/>
  <path d="M242 132C246.418 132 250 128.418 250 124C250 119.582 246.418 116 242 116C237.582 116 234 119.582 234 124C234 128.418 237.582 132 242 132Z" fill="#F5F5F5"/>
  <path d="M242 116C246.42 116 250 119.58 250 124C250 128.42 246.42 132 242 132C237.58 132 234 128.42 234 124C234 119.58 237.58 116 242 116ZM242 112C235.382 112 230 117.382 230 124C230 130.618 235.382 136 242 136C248.618 136 254 130.618 254 124C254 117.382 248.618 112 242 112Z" fill="#CC584C"/>
  <path d="M116 134C120.418 134 124 130.418 124 126C124 121.582 120.418 118 116 118C111.582 118 108 121.582 108 126C108 130.418 111.582 134 116 134Z" fill="#F5F5F5"/>
  <path d="M116 118C120.42 118 124 121.58 124 126C124 130.42 120.42 134 116 134C111.58 134 108 130.42 108 126C108 121.58 111.58 118 116 118ZM116 114C109.382 114 104 119.382 104 126C104 132.618 109.382 138 116 138C122.618 138 128 132.618 128 126C128 119.382 122.618 114 116 114Z" fill="#CC584C"/>
  <path d="M68 178C72.4183 178 76 174.418 76 170C76 165.582 72.4183 162 68 162C63.5817 162 60 165.582 60 170C60 174.418 63.5817 178 68 178Z" fill="#F5F5F5"/>
  <path d="M68 162C72.42 162 76 165.58 76 170C76 174.42 72.42 178 68 178C63.58 178 60 174.42 60 170C60 165.58 63.58 162 68 162ZM68 158C61.382 158 56 163.382 56 170C56 176.618 61.382 182 68 182C74.618 182 80 176.618 80 170C80 163.382 74.618 158 68 158Z" fill="#CC584C"/>
</svg>
