<svg width="257" height="257" viewBox="0 0 257 257" fill="none" xmlns="http://www.w3.org/2000/svg">
  <path d="M224 192C218.048 192.176 212.544 193.936 207.872 196.88L172.48 162.4C179.424 153.648 183.808 142.576 184.32 130.512L209.44 128C213.04 136.896 221.6 143.056 231.6 143.056C244.768 143.056 255.44 132.384 255.44 119.216C255.44 106.048 244.768 95.376 231.6 95.376C219.616 95.376 209.712 104.208 208.016 115.712L182.56 117.76C178.976 99.584 166.992 84.8 150.912 77.424L155.84 64H160C177.584 63.872 191.776 49.6 191.776 32C191.776 14.32 177.456 0 159.776 0C142.096 0 127.776 14.32 127.776 32C127.776 43.872 134.24 54.24 143.84 59.76L139.52 73.44C135.888 72.576 131.728 72.096 127.456 72.096C114.176 72.096 102.016 76.832 92.5601 84.72L44.6561 36.656C46.9121 33.072 48.2561 28.704 48.2561 24.016C48.2561 10.768 37.5041 0.016 24.2561 0.016C11.0081 0.016 0.256113 10.768 0.256113 24.016C0.256113 37.184 10.8641 47.888 24.0001 48.016C28.4961 48 32.7041 46.752 36.2721 44.592L84.1601 92.656C76.5761 102.064 72.0001 114.16 72.0001 127.344C72.0001 127.584 72.0001 127.824 72.0001 128.064C72.0001 128.992 72.0001 129.792 72.0001 130.592L61.4401 132.352C56.4321 120.832 45.1361 112.928 32.0161 112.928C14.3361 112.928 0.0161133 127.248 0.0161133 144.928C0.0161133 162.608 14.3361 176.928 32.0161 176.928C49.6961 176.928 64.0161 162.608 64.0161 144.928C64.0161 144.608 64.0161 144.304 64.0001 143.984L74.0801 142.432C77.9521 155.92 86.3681 167.04 97.5361 174.304L88.6401 193.312C86.0641 192.528 83.0881 192.064 80.0161 192.032C79.9201 192.032 79.8241 192.032 79.7441 192.032C62.0641 192.032 47.7441 206.352 47.7441 224.032C47.7441 241.712 62.0641 256.032 79.7441 256.032C97.4241 256.032 111.744 241.712 111.744 224.032C111.744 213.792 106.928 204.656 99.4401 198.8L108.496 180.352C114.32 182.688 121.088 184.048 128.16 184.048C141.712 184.048 154.096 179.072 163.616 170.864L198.432 204.848C194.432 210.128 192.032 216.816 192.032 224.048C192.032 241.728 206.352 256.048 224.032 256.048C241.712 256.048 256.032 241.728 256.032 224.048C256.032 206.368 241.712 192.048 224.032 192.048L224 192ZM80.0001 240C71.1681 240 64.0001 232.832 64.0001 224C64.0001 215.168 71.1681 208 80.0001 208C88.8321 208 96.0001 215.168 96.0001 224C96.0001 232.832 88.8321 240 80.0001 240ZM128 168C105.904 168 88.0001 150.096 88.0001 128C88.0001 105.904 105.904 88 128 88C150.096 88 168 105.904 168 128C168 150.096 150.096 168 128 168Z" fill="#444444"/>
</svg>
