<svg width="456" height="456" viewBox="0 0 456 456" fill="none" xmlns="http://www.w3.org/2000/svg">
    <g clip-path="url(#clip0_116_82)">
        <path d="M39.8567 340.9L322.153 58.5955L397.404 133.847L115.1 416.143L39.8567 340.9Z" fill="black"/>
        <path d="M429.667 101.592L440.416 90.8427C450.466 80.793 456 67.4365 456 53.2209C456 39.0053 450.466 25.6488 440.416 15.5991C430.366 5.54939 417.002 0 402.787 0C388.571 0 375.215 5.54179 365.157 15.5915L354.408 26.3406L429.667 101.592Z" fill="black"/>
        <path d="M31.1602 353.694L0.387698 445.996C-0.52453 448.725 0.190048 451.743 2.22736 453.773C3.67172 455.217 5.61781 456 7.6019 456C8.4077 456 9.2135 455.871 10.0041 455.605L102.299 424.84L31.1602 353.694Z" fill="black"/>
        <path d="M332.91 47.8464L343.667 37.0897L418.918 112.341L408.161 123.098L332.91 47.8464Z" fill="black"/>
    </g>
    <defs>
        <clipPath id="clip0_116_82">
            <rect width="456" height="456" fill="white"/>
        </clipPath>
    </defs>
</svg>
