<svg width="256" height="256" viewBox="0 0 256 256" fill="none" xmlns="http://www.w3.org/2000/svg">
	<path d="M135.29 212.688H120.71V256H135.29V212.688Z" fill="#FFDE55"/>
	<path d="M135.29 0H120.71V43.3115H135.29V0Z" fill="#FFDE55"/>
	<path d="M32.336 213.355L42.645 223.664L73.2702 193.039L62.9612 182.73L32.336 213.355Z" fill="#FCEBA2"/>
	<path d="M182.729 62.9614L193.038 73.2704L223.664 42.6452L213.355 32.3362L182.729 62.9614Z" fill="#FCEBA2"/>
	<path d="M43.3115 120.71H0V135.29H43.3115V120.71Z" fill="#FFDE55"/>
	<path d="M256 120.71H212.688V135.29H256V120.71Z" fill="#FFDE55"/>
	<path d="M42.6454 32.3364L32.3364 42.6454L62.9616 73.2706L73.2706 62.9616L42.6454 32.3364Z" fill="#FCEBA2"/>
	<path d="M193.038 182.729L182.729 193.038L213.355 223.664L223.664 213.355L193.038 182.729Z" fill="#FCEBA2"/>
	<path d="M127.998 197.534C166.4 197.534 197.532 166.403 197.532 128.001C197.532 89.5983 166.4 58.4672 127.998 58.4672C89.596 58.4672 58.4648 89.5983 58.4648 128.001C58.4648 166.403 89.596 197.534 127.998 197.534Z" fill="#FCEBA2"/>
	<path d="M127.998 181.35C157.463 181.35 181.348 157.465 181.348 128.001C181.348 98.5362 157.463 74.6506 127.998 74.6506C98.534 74.6506 74.6484 98.5362 74.6484 128.001C74.6484 157.465 98.534 181.35 127.998 181.35Z" fill="#FFDE55"/>
</svg>
