<svg width="256" height="256" viewBox="0 0 256 256" fill="none" xmlns="http://www.w3.org/2000/svg">
  <path d="M96.3255 119.322H96.7592L75.9321 219.118L55.105 119.322H55.9729" fill="#AAB1BA"/>
  <path d="M28.2036 232.135L2.16968 227.796V141.017C2.16968 123.661 23.8647 114.983 54.2374 114.983L55.1054 119.322L75.9325 219.118L96.7596 119.322L97.6276 114.983C119.323 114.983 136.678 119.322 144.922 128.433C146.224 129.735 146.658 131.037 147.526 132.339C147.526 132.339 149.695 136.244 149.695 151.43C147.092 150.562 144.055 150.129 141.017 150.129H132.339C119.322 150.129 110.644 158.807 110.644 171.824V176.162C110.644 193.518 119.322 206.535 136.678 206.535C141.017 206.535 144.922 205.667 148.393 203.932L149.695 206.535V219.552L136.678 228.23L123.661 219.552C101.966 219.552 97.6271 228.664 97.6271 236.908H28.2036V232.135ZM75.932 123.661C78.5354 123.661 80.2708 121.926 80.2708 119.322C80.2708 116.719 78.5354 114.983 75.932 114.983C73.3286 114.983 71.5932 116.719 71.5932 119.322C71.5932 121.926 73.3286 123.661 75.932 123.661Z" fill="#80D6FA"/>
  <path d="M210.441 67.2544V84.6101C210.441 97.6271 201.763 114.983 188.746 114.983C175.729 114.983 167.051 97.6271 167.051 84.6101V67.2544C167.051 67.2544 180.067 67.2544 184.406 54.2374C188.746 67.2544 210.441 67.2544 210.441 67.2544ZM110.644 49.8981V58.5762C110.644 60.7459 108.909 62.9151 106.305 62.9151C106.305 71.5932 101.966 80.2708 101.966 80.2708C97.627 88.9489 92.854 97.6271 75.932 97.6271C59.0099 97.6271 54.2369 88.9489 49.8981 80.2713C49.8981 80.2713 45.5593 71.5932 45.5593 62.9156C43.3896 62.9156 41.2205 60.7459 41.2205 58.5767V49.8981C41.2205 47.7284 43.3901 45.5593 45.5593 45.5593V41.2205C45.5593 29.0715 55.1049 19.5254 67.2543 19.5254H84.6101C96.7591 19.5254 106.305 29.071 106.305 41.2205V45.5593C108.909 45.5593 110.644 47.729 110.644 49.8981ZM162.712 171.39V175.729C162.712 188.746 157.939 199.159 148.393 203.498C144.922 205.233 141.017 206.101 136.678 206.101C119.322 206.101 110.644 193.084 110.644 175.729V171.39C110.644 158.373 119.322 149.695 132.339 149.695H141.017C144.054 149.695 147.092 150.129 149.695 150.997C157.939 154.034 162.712 161.41 162.712 171.39Z" fill="#FFD0A1"/>
  <path d="M175.729 236.475H97.627C97.627 228.231 101.966 219.119 123.661 219.119L136.678 227.796L149.695 219.118C171.39 219.118 175.729 228.23 175.729 236.475Z" fill="#FFE079"/>
  <path d="M210.441 84.6101V67.2544C210.441 67.2544 188.746 67.2544 184.407 54.2374C180.068 67.2544 167.051 67.2544 167.051 67.2544V84.6101C167.051 97.6271 175.729 114.983 188.746 114.983C201.763 114.983 210.441 97.6271 210.441 84.6101ZM223.458 54.2374L229.966 126.264V126.698C224.326 124.963 217.817 123.661 210.441 123.661C210.441 123.661 210.441 149.695 188.746 149.695C167.051 149.695 167.051 123.661 167.051 123.661C166.617 123.661 155.769 123.661 147.092 127.132V126.699L154.034 54.2374C155.335 41.2205 171.389 28.2035 184.406 28.2035H193.085C206.102 28.2035 222.59 41.2205 223.458 54.2374Z" fill="#AE938D"/>
  <path d="M188.746 149.695C210.441 149.695 210.441 123.661 210.441 123.661C217.817 123.661 224.326 124.529 229.966 126.698C246.455 132.339 253.83 145.355 253.83 158.372V227.796L227.797 232.135V236.474H175.729C175.729 228.23 171.39 219.118 149.695 219.118V206.101L148.393 203.498C157.939 199.159 162.712 188.312 162.712 175.729V171.39C162.712 161.41 157.939 154.034 149.695 150.997C149.695 135.81 147.525 131.905 147.525 131.905C146.657 130.603 145.79 129.301 144.922 128L145.356 127.566C145.789 127.132 146.657 127.132 147.091 126.698C155.335 123.227 166.183 123.227 167.05 123.227C167.051 123.661 167.051 149.695 188.746 149.695Z" fill="#C49AE9"/>
  <path d="M227.796 238.644C226.495 238.644 225.627 237.776 225.627 236.474L226.061 167.051C226.061 165.749 226.928 164.881 228.23 164.881C229.532 164.881 230.4 165.749 230.4 167.051L229.966 236.474C229.966 237.776 229.098 238.644 227.796 238.644ZM175.729 238.644C174.427 238.644 173.559 237.776 173.559 236.474C173.559 232.569 173.559 221.287 150.562 221.287L137.979 229.531C137.111 229.965 136.244 229.965 135.376 229.531L122.793 221.288C99.7962 221.288 99.7962 232.569 99.7962 236.475C99.7962 237.776 98.9282 238.644 97.6265 238.644C96.3248 238.644 95.4569 237.776 95.4569 236.475C95.4569 223.458 105.002 216.949 123.66 216.949C124.094 216.949 124.528 216.949 124.962 217.383L136.677 225.193L148.393 217.383C148.826 216.949 149.261 216.949 149.694 216.949C168.352 216.949 177.898 223.458 177.898 236.475C177.898 237.776 177.03 238.644 175.729 238.644ZM28.2035 238.644C26.9018 238.644 26.0339 237.776 26.0339 236.474V167.051C26.0339 165.749 26.9018 164.881 28.2035 164.881C29.5052 164.881 30.3732 165.749 30.3732 167.051V236.474C30.3727 237.776 29.5052 238.644 28.2035 238.644ZM253.83 229.966C252.529 229.966 251.661 229.098 251.661 227.796V158.373C251.661 150.129 248.624 142.753 242.983 137.112C236.04 130.169 225.627 126.264 212.61 126.264C211.742 135.81 206.969 150.996 190.915 152.298V176.162C190.915 177.464 190.047 178.332 188.745 178.332C187.443 178.332 186.575 177.464 186.575 176.162V152.298C169.653 150.996 164.88 133.641 164.88 124.095C164.88 122.793 165.748 121.925 167.05 121.925C168.352 121.925 169.22 122.793 169.22 124.095C169.22 124.963 169.653 147.959 188.745 147.959C207.837 147.959 208.271 124.962 208.271 124.095C208.271 122.793 209.139 121.925 210.44 121.925C225.627 121.925 237.776 126.264 246.02 134.074C252.528 140.582 255.999 149.261 255.999 158.372V227.796C256 229.098 255.132 229.966 253.83 229.966ZM2.16966 229.966C0.867966 229.966 0 229.098 0 227.796V141.017C0 135.376 2.16966 130.169 6.50847 125.831C15.1866 117.152 31.6744 112.814 54.2374 112.814C55.5391 112.814 56.4071 113.247 56.8408 114.549L78.5359 218.685C78.9696 219.986 78.1022 220.854 76.8005 221.288C75.4988 221.722 74.6308 220.854 74.1971 219.553L52.9357 117.152C32.5424 117.152 17.3563 121.491 9.97982 128.868C6.50847 132.339 4.77305 136.244 4.77305 141.017V227.796C4.33881 229.098 3.47135 229.966 2.16966 229.966ZM136.678 208.271C119.322 208.271 108.474 195.688 108.474 175.729V171.39C108.474 157.071 118.02 147.526 132.339 147.526H141.017C155.335 147.526 164.881 157.071 164.881 171.39V175.729C164.881 195.688 154.034 208.271 136.678 208.271ZM132.339 151.864C120.624 151.864 112.814 159.675 112.814 171.39V175.729C112.814 193.519 121.926 203.932 136.678 203.932C151.43 203.932 160.542 193.519 160.542 175.729V171.39C160.542 159.675 152.732 151.864 141.017 151.864H132.339ZM75.932 160.542C74.6303 160.542 73.7623 159.674 73.7623 158.372V125.396C71.1589 124.528 69.4235 121.925 69.4235 119.322C69.4235 115.85 72.4606 112.813 75.932 112.813C79.4033 112.813 82.4405 115.85 82.4405 119.322C82.4405 122.359 80.705 124.528 78.1016 125.396V158.372C78.1016 159.675 77.2337 160.542 75.932 160.542ZM75.932 117.152C74.6303 117.152 73.7623 118.02 73.7623 119.322C73.7623 120.624 74.6303 121.492 75.932 121.492C77.2337 121.492 78.1016 120.624 78.1016 119.322C78.1016 118.02 77.2337 117.152 75.932 117.152ZM93.2882 138.848C93.2882 138.848 92.854 138.848 93.2882 138.848C91.5528 138.414 91.1186 137.546 91.1186 136.244L95.4574 114.549C95.8911 113.247 96.7591 112.814 98.0608 112.814C124.963 112.814 143.186 119.322 149.695 131.037C150.129 131.905 149.695 133.207 148.827 134.074C147.959 134.508 146.657 134.074 145.79 133.207C140.149 123.227 123.661 117.586 99.7967 117.152L95.8916 137.112C95.0237 137.98 94.1557 138.848 93.2882 138.848ZM188.746 117.152C173.993 117.152 164.881 98.0608 164.881 84.6101V67.2544C164.881 65.9527 165.749 65.0847 167.051 65.0847C167.485 65.0847 178.766 65.0847 182.238 53.3695C182.671 51.634 185.709 51.634 186.143 53.3695C190.048 64.651 210.007 65.0847 210.007 65.0847C211.309 65.0847 212.177 65.9527 212.177 67.2544V84.6101C212.61 98.0608 203.498 117.152 188.746 117.152ZM169.22 69.4235V84.6101C169.22 96.3254 177.03 112.814 188.746 112.814C200.461 112.814 208.271 96.3254 208.271 84.6101V69.4235C203.064 68.9898 190.481 67.2539 184.407 59.4437C180.502 65.9527 173.993 68.5561 169.22 69.4235ZM227.796 112.814C226.495 112.814 225.627 111.946 225.627 110.644L221.288 54.2374C220.42 42.9559 205.234 30.3732 193.084 30.3732H184.406C171.823 30.3732 157.071 42.9564 156.203 54.2374L151.864 110.644C151.864 111.946 150.563 112.814 149.695 112.814C148.393 112.814 147.525 111.512 147.525 110.644L151.864 54.2374C153.166 40.7868 169.654 26.0339 184.406 26.0339H193.084C206.535 26.0339 224.325 39.0508 225.627 54.2374L229.966 110.644C229.966 111.512 229.098 112.814 227.796 112.814ZM75.932 99.7967C57.2745 99.7967 52.0678 88.9494 48.1627 81.1393C48.1627 80.7055 44.2576 72.8954 43.8239 64.651C41.2205 63.783 39.4851 61.1796 39.4851 58.5762V49.8986C39.4851 46.8615 41.2205 44.6918 43.8239 43.8239V41.2205C43.8239 28.2035 54.6711 17.3563 67.6881 17.3563H85.0438C98.0608 17.3563 108.908 28.2035 108.908 41.2205V43.8239C111.511 44.6918 113.247 47.2952 113.247 49.8986V58.5762C113.247 61.6133 111.511 63.783 108.908 64.651C108.474 72.8949 104.569 80.705 104.569 81.1393C99.7967 88.9489 94.5899 99.7967 75.932 99.7967ZM67.2544 21.6951C56.4071 21.6951 47.7289 30.3732 47.7289 41.2205V45.5593C47.7289 46.861 46.861 47.7289 45.5593 47.7289C44.2576 47.7289 43.3896 48.5969 43.3896 49.8986V58.5762C43.3896 59.8779 44.2576 60.7459 45.5593 60.7459C46.861 60.7459 47.7289 61.6139 47.7289 62.9156C47.7289 71.1594 51.634 79.4038 51.634 79.4038C56.4071 88.9494 60.7459 95.4579 75.9325 95.4579C91.1191 95.4579 95.4579 88.9494 100.231 79.4038C100.231 79.4038 104.136 71.16 104.136 62.9156C104.136 61.6139 105.004 60.7459 106.306 60.7459C107.607 60.7459 108.475 59.8779 108.475 58.5762V49.8981C108.475 48.5964 107.607 47.7284 106.306 47.7284C105.004 47.7284 104.136 46.861 104.136 45.5593V41.2205C104.136 30.3732 95.4574 21.6951 84.6101 21.6951H67.2544V21.6951ZM88.9489 56.4066H84.6101C83.3084 56.4066 82.4405 55.5386 82.4405 54.2369C82.4405 52.9352 83.3084 52.0673 84.6101 52.0673H88.9489C90.2506 52.0673 91.1186 52.9352 91.1186 54.2369C91.1186 55.5386 90.2506 56.4066 88.9489 56.4066ZM67.2544 56.4066H62.9156C61.6139 56.4066 60.7459 55.5386 60.7459 54.2369C60.7459 52.9352 61.6139 52.0673 62.9156 52.0673H67.2544C68.5561 52.0673 69.424 52.9352 69.424 54.2369C69.424 55.5386 68.5561 56.4066 67.2544 56.4066Z" fill="#51565F"/>
</svg>
