<svg width="256" height="256" viewBox="0 0 256 256" fill="none" xmlns="http://www.w3.org/2000/svg">
	<path d="M213.333 218.667H42.6667C30.9333 218.667 21.3333 209.067 21.3333 197.333V85.8667C21.3333 78.9333 24.5333 72.5333 30.4 68.2667L128 0L225.6 68.2667C231.467 72 234.667 78.9333 234.667 85.8667V197.333C234.667 209.067 225.067 218.667 213.333 218.667Z" fill="#78909C"/>
	<path d="M192 58.6667H64V176H192V58.6667Z" fill="white"/>
	<path d="M128 72.5333L96 114.133H160L128 72.5333Z" fill="#9C27B0"/>
	<path d="M213.333 218.667H42.6667C30.9333 218.667 21.3333 209.067 21.3333 197.333V90.6667L128 160L234.667 90.6667V197.333C234.667 209.067 225.067 218.667 213.333 218.667Z" fill="#CFD8DC"/>
	<path d="M128 149.333L138.667 142.4V106.667H117.333V142.4L128 149.333Z" fill="#9C27B0"/>
</svg>
