<svg width="256" height="256" viewBox="0 0 256 256" fill="none" xmlns="http://www.w3.org/2000/svg">
  <g clip-path="url(#clip0_109_129)">
	<path d="M128 256.001C198.693 256.001 256.001 198.693 256.001 128C256.001 57.3077 198.693 0 128 0C57.3077 0 0 57.3077 0 128C0 198.693 57.3077 256.001 128 256.001Z" fill="#EFC849"/>
	<path d="M142.51 155.577C142.51 158.956 139.774 161.691 136.396 161.691H66.0658C62.6903 161.691 59.9517 158.954 59.9517 155.577V57.7305C59.9517 54.3512 62.6903 51.6164 66.0658 51.6164H136.394C139.771 51.6164 142.508 54.3528 142.508 57.7305V155.577H142.51V155.577Z" fill="#E7E7E7"/>
	<path d="M133.906 78.2653C133.906 79.3181 133.051 80.171 131.998 80.171H70.9208C69.868 80.171 69.0129 79.3181 69.0129 78.2653C69.0129 77.2125 69.868 76.3553 70.9208 76.3553H131.998C133.051 76.3553 133.906 77.2125 133.906 78.2653Z" fill="#C9C9C8"/>
	<path d="M133.906 88.2864C133.906 89.3392 133.051 90.1964 131.998 90.1964H70.9208C69.868 90.1964 69.0129 89.3392 69.0129 88.2864C69.0129 87.2336 69.868 86.3764 70.9208 86.3764H131.998C133.051 86.3742 133.906 87.2315 133.906 88.2864Z" fill="#C9C9C8"/>
	<path d="M133.906 68.2426C133.906 69.2954 133.051 70.1526 131.998 70.1526H70.9208C69.868 70.1526 69.0129 69.2954 69.0129 68.2426C69.0129 67.1898 69.868 66.3369 70.9208 66.3369H131.998C133.051 66.3363 133.906 67.1893 133.906 68.2426Z" fill="#C9C9C8"/>
	<path d="M133.906 98.3054C133.906 99.3624 133.051 100.215 131.998 100.215H70.9208C69.868 100.215 69.0129 99.3624 69.0129 98.3054C69.0129 97.2526 69.868 96.3997 70.9208 96.3997H131.998C133.051 96.3975 133.906 97.2504 133.906 98.3054Z" fill="#C9C9C8"/>
	<path d="M133.906 107.849C133.906 108.902 133.051 109.759 131.998 109.759H70.9208C69.868 109.759 69.0129 108.902 69.0129 107.849C69.0129 106.796 69.868 105.939 70.9208 105.939H131.998C133.051 105.939 133.906 106.796 133.906 107.849Z" fill="#C9C9C8"/>
	<path d="M133.906 117.868C133.906 118.921 133.051 119.778 131.998 119.778H70.9208C69.868 119.778 69.0129 118.921 69.0129 117.868C69.0129 116.815 69.868 115.962 70.9208 115.962H131.998C133.051 115.962 133.906 116.815 133.906 117.868Z" fill="#C9C9C8"/>
	<path d="M206.176 172.757C206.176 176.136 203.44 178.871 200.062 178.871H129.732C126.357 178.871 123.618 176.134 123.618 172.757V74.9103C123.618 71.5311 126.357 68.7962 129.732 68.7962H200.06C203.437 68.7962 206.174 71.5327 206.174 74.9103V172.757H206.176Z" fill="#F3F4F5"/>
	<path d="M197.573 95.4452C197.573 96.498 196.718 97.3509 195.665 97.3509H134.587C133.534 97.3509 132.679 96.498 132.679 95.4452C132.679 94.3924 133.534 93.5352 134.587 93.5352H195.664C196.718 93.5352 197.573 94.3924 197.573 95.4452Z" fill="#C9C9C8"/>
	<path d="M197.573 105.466C197.573 106.519 196.718 107.376 195.665 107.376H134.587C133.534 107.376 132.679 106.519 132.679 105.466C132.679 104.414 133.534 103.556 134.587 103.556H195.664C196.718 103.554 197.573 104.411 197.573 105.466Z" fill="#C9C9C8"/>
	<path d="M197.573 85.4225C197.573 86.4752 196.718 87.3325 195.665 87.3325H134.587C133.534 87.3325 132.679 86.4752 132.679 85.4225C132.679 84.3697 133.534 83.5168 134.587 83.5168H195.664C196.718 83.5162 197.573 84.3691 197.573 85.4225Z" fill="#C9C9C8"/>
	<path d="M197.573 115.485C197.573 116.542 196.718 117.395 195.665 117.395H134.587C133.534 117.395 132.679 116.542 132.679 115.485C132.679 114.432 133.534 113.58 134.587 113.58H195.664C196.718 113.577 197.573 114.43 197.573 115.485Z" fill="#C9C9C8"/>
	<path d="M197.573 125.029C197.573 126.082 196.718 126.939 195.665 126.939H134.587C133.534 126.939 132.679 126.082 132.679 125.029C132.679 123.976 133.534 123.119 134.587 123.119H195.664C196.718 123.119 197.573 123.976 197.573 125.029Z" fill="#C9C9C8"/>
	<path d="M197.573 135.05C197.573 136.103 196.718 136.96 195.665 136.96H134.587C133.534 136.96 132.679 136.103 132.679 135.05C132.679 133.997 133.534 133.144 134.587 133.144H195.664C196.718 133.142 197.573 133.995 197.573 135.05Z" fill="#C9C9C8"/>
	<path d="M98.1048 97.0419C94.7277 97.0419 91.9907 99.7805 91.9907 103.156V201.002C91.9907 204.381 94.7272 207.12 98.1048 207.12H168.434C171.811 207.12 174.548 204.381 174.548 201.002V125.36L145.069 97.0419H98.1048V97.0419Z" fill="#F5F5F5"/>
	<path d="M174.547 125.36H151.182C147.805 125.36 145.068 122.624 145.068 119.246V97.0419L174.547 125.36Z" fill="#E1E1E1"/>
	<path d="M165.944 133.716C165.944 134.769 165.089 135.621 164.036 135.621H102.958C101.905 135.621 101.048 134.769 101.048 133.716C101.048 132.663 101.905 131.806 102.958 131.806H164.035C165.091 131.804 165.944 132.661 165.944 133.716Z" fill="#C9C9C8"/>
	<path d="M165.944 143.735C165.944 144.787 165.089 145.645 164.036 145.645H102.958C101.905 145.645 101.048 144.787 101.048 143.735C101.048 142.682 101.905 141.825 102.958 141.825H164.035C165.091 141.823 165.944 142.68 165.944 143.735Z" fill="#C9C9C8"/>
	<path d="M165.944 153.275C165.944 154.327 165.089 155.185 164.036 155.185H102.958C101.905 155.185 101.048 154.327 101.048 153.275C101.048 152.222 101.905 151.368 102.958 151.368H164.035C165.091 151.369 165.944 152.222 165.944 153.275Z" fill="#C9C9C8"/>
	<path d="M165.944 163.298C165.944 164.351 165.089 165.204 164.036 165.204H102.958C101.905 165.204 101.048 164.351 101.048 163.298C101.048 162.245 101.905 161.388 102.958 161.388H164.035C165.091 161.388 165.944 162.244 165.944 163.298Z" fill="#C9C9C8"/>
	<path d="M134.931 171.41H102.958C101.905 171.41 101.048 172.263 101.048 173.316C101.048 174.369 101.905 175.226 102.958 175.226H134.929C135.981 175.226 136.836 174.369 136.836 173.316C136.837 172.263 135.984 171.41 134.931 171.41Z" fill="#C9C9C8"/>
  </g>
  <defs>
	<clipPath id="clip0_109_129">
	  <rect width="256" height="256" fill="white"/>
	</clipPath>
  </defs>
</svg>
