<svg width="256" height="256" viewBox="0 0 256 256" fill="none" xmlns="http://www.w3.org/2000/svg">
	<path d="M128 16C105.848 16 84.1944 22.5687 65.7761 34.8754C47.3578 47.1821 33.0025 64.6741 24.5255 85.1395C16.0485 105.605 13.8305 128.124 18.152 149.85C22.4736 171.576 33.1406 191.532 48.804 207.196C64.4675 222.859 84.424 233.526 106.15 237.848C127.876 242.169 150.395 239.952 170.861 231.475C191.326 222.997 208.818 208.642 221.125 190.224C233.431 171.806 240 150.152 240 128C240 98.2958 228.2 69.8081 207.196 48.804C186.192 27.8 157.704 16 128 16V16ZM128 224C109.013 224 90.4524 218.37 74.6653 207.821C58.8781 197.272 46.5736 182.279 39.3076 164.738C32.0415 147.196 30.1404 127.894 33.8446 109.271C37.5488 90.6492 46.6919 73.5436 60.1177 60.1177C73.5436 46.6919 90.6492 37.5488 109.271 33.8446C127.894 30.1404 147.196 32.0416 164.738 39.3076C182.279 46.5736 197.272 58.8781 207.821 74.6653C218.37 90.4524 224 109.013 224 128C224 153.461 213.886 177.879 195.882 195.882C177.879 213.886 153.461 224 128 224Z" fill="#0067C0"/>
	<path d="M128 200C134.627 200 140 194.627 140 188C140 181.373 134.627 176 128 176C121.373 176 116 181.373 116 188C116 194.627 121.373 200 128 200Z" fill="#0067C0"/>
	<path d="M136 64H124C119.269 63.9895 114.583 64.9134 110.211 66.7189C105.838 68.5243 101.866 71.1756 98.5206 74.5206C95.1756 77.8656 92.5243 81.8384 90.7189 86.2109C88.9134 90.5834 87.9895 95.2694 88 100V104H104V100C104 94.6957 106.107 89.6086 109.858 85.8579C113.609 82.1071 118.696 80 124 80H136C141.304 80 146.391 82.1071 150.142 85.8579C153.893 89.6086 156 94.6957 156 100C156 105.304 153.893 110.391 150.142 114.142C146.391 117.893 141.304 120 136 120H120V156H136V136C145.548 136 154.705 132.207 161.456 125.456C168.207 118.705 172 109.548 172 100C172 90.4522 168.207 81.2955 161.456 74.5442C154.705 67.7928 145.548 64 136 64V64Z" fill="#0067C0"/>
</svg>
