<svg width="256" height="256" viewBox="0 0 256 256" fill="none" xmlns="http://www.w3.org/2000/svg">
	<path d="M34.8059 235.697C34.8059 235.697 34.5731 241.42 40.1704 241.42C47.1354 241.42 104.699 241.342 104.699 241.342L104.796 188.464C104.796 188.464 103.884 179.753 112.333 179.753H139.117C149.118 179.753 148.507 188.464 148.507 188.464L148.391 241.177C148.391 241.177 202.986 241.177 211.561 241.177C218.662 241.177 218.342 234.057 218.342 234.057V136.546L129.31 57.3599L34.8059 136.556C34.8059 136.556 34.8059 235.697 34.8059 235.697Z" fill="#0067C0"/>
	<path d="M0 129.183C0 129.183 8.01273 143.967 25.5224 129.183L130.105 40.7039L228.149 128.631C248.404 143.24 256 128.631 256 128.631L130.105 14.5898L0 129.183Z" fill="#0067C0"/>
	<path d="M225.763 40.5002H200.551L200.658 71.0863L225.763 92.3986V40.5002Z" fill="#0067C0"/>
</svg>
