<svg width="258" height="331" viewBox="0 0 258 331" fill="none" xmlns="http://www.w3.org/2000/svg">
	<path d="M82.5601 263.16V283.8C82.5601 296.413 91.6558 306.939 103.633 309.167C105.861 321.142 116.387 330.24 129 330.24C141.613 330.24 152.139 321.142 154.367 309.167C166.344 306.939 175.44 296.412 175.44 283.8V263.16H82.5601Z" fill="#D8DCE1"/>
	<path d="M82.5601 263.16V283.8C82.5601 296.413 91.6558 306.939 103.633 309.167C105.861 321.142 116.387 330.24 129 330.24V263.16H82.5601Z" fill="#B9BBC1"/>
	<path d="M103.754 309.6C106.157 321.354 116.544 330.24 129 330.24C141.455 330.24 151.843 321.354 154.246 309.6H103.754Z" fill="#8B8996"/>
	<path d="M258 129C258 57.8688 200.131 0 129 0C57.8688 0 0 57.8688 0 129C0 182.24 33.491 230.36 82.56 249.358V263.16H175.44V249.36C224.51 230.364 258 182.244 258 129Z" fill="#FFD200"/>
	<path d="M175.44 263.16V249.36C224.51 230.364 258 182.244 258 129C258 57.8688 200.131 0 129 0V263.16H175.44Z" fill="#FFEF43"/>
	<path d="M157.38 134.16C178.753 134.16 196.08 116.833 196.08 95.46C196.08 74.0866 178.753 56.76 157.38 56.76C136.007 56.76 118.68 74.0866 118.68 95.46C118.68 116.833 136.007 134.16 157.38 134.16Z" fill="white"/>
	<path d="M174.796 118.68H132.133L139.214 61.3989C140.04 55.9499 138.137 55.1907 134.986 59.7122L84.0745 131.099C80.9231 135.621 82.8542 139.321 88.3651 139.321H125.562L117.924 206.922C117.099 212.371 119.001 213.13 122.153 208.608L179.087 126.901C182.238 122.379 180.307 118.68 174.796 118.68Z" fill="#FF4F19"/>
</svg>
