<svg width="256" height="256" viewBox="0 0 256 256" fill="none" xmlns="http://www.w3.org/2000/svg">
	<path d="M232.843 0H23.1573C10.368 0 0 10.368 0 23.1573V232.842C0 245.632 10.368 256 23.1573 256H232.842C245.632 256 256 245.632 256 232.842V23.1573C256 10.368 245.632 0 232.843 0ZM79.2173 221.047C79.2173 224.769 76.2002 227.786 72.4782 227.786H43.7914C40.0694 227.786 37.0523 224.769 37.0523 221.047V100.794C37.0523 97.0716 40.0694 94.0545 43.7914 94.0545H72.4782C76.2002 94.0545 79.2173 97.0716 79.2173 100.794V221.047ZM58.1348 82.7188C43.0837 82.7188 30.8822 70.5173 30.8822 55.4662C30.8822 40.4152 43.0837 28.2136 58.1348 28.2136C73.1858 28.2136 85.3874 40.4152 85.3874 55.4662C85.3874 70.5173 73.1865 82.7188 58.1348 82.7188ZM229.133 221.59C229.133 225.012 226.359 227.786 222.937 227.786H192.154C188.732 227.786 185.958 225.012 185.958 221.59V165.184C185.958 156.77 188.426 128.312 163.968 128.312C144.997 128.312 141.148 147.79 140.376 156.532V221.59C140.376 225.012 137.602 227.786 134.18 227.786H104.407C100.985 227.786 98.2108 225.012 98.2108 221.59V100.251C98.2108 96.829 100.985 94.0545 104.407 94.0545H134.18C137.601 94.0545 140.376 96.829 140.376 100.251V110.742C147.41 100.185 157.865 92.0367 180.124 92.0367C229.416 92.0367 229.133 138.087 229.133 163.39V221.59Z" fill="#0077B7"/>
</svg>
