<svg width="456" height="456" viewBox="0 0 456 456" fill="none" xmlns="http://www.w3.org/2000/svg">
<path d="M101.066 152.241C101.066 207.073 185.426 314.368 228 362.803C270.574 314.354 354.936 207.036 354.936 152.241C354.935 82.2485 297.993 25.3046 228 25.3046C158.007 25.3046 101.066 82.2485 101.066 152.241ZM228 79.8024C263.858 79.8024 293.03 108.974 293.03 144.832C293.03 180.69 263.858 209.862 228 209.862C192.142 209.862 162.97 180.69 162.97 144.832C162.97 108.974 192.142 79.8024 228 79.8024Z" fill="#73D0F4"/>
<path d="M427.961 364.14L296.425 318.9C300.25 313.871 304.125 308.692 308.009 303.378C355.937 237.803 380.24 186.953 380.24 152.24C380.24 68.2941 311.945 0 228 0C144.055 0 75.761 68.294 75.761 152.241C75.761 186.954 100.064 237.803 147.992 303.379C151.909 308.737 155.815 313.958 159.67 319.023L28.0523 364.136C22.9408 365.888 19.5067 370.694 19.5035 376.099C19.5004 381.502 22.9313 386.312 28.0407 388.07L223.548 455.313C224.882 455.77 226.273 456 227.663 456C229.049 456 230.437 455.772 231.766 455.317L427.95 388.074C433.061 386.323 436.495 381.516 436.499 376.112C436.501 370.708 433.071 365.898 427.961 364.14ZM354.935 152.241C354.935 207.036 270.573 314.354 227.999 362.803C185.425 314.368 101.065 207.073 101.065 152.241C101.066 82.2485 158.007 25.3046 228 25.3046C297.993 25.3046 354.935 82.2485 354.935 152.241ZM227.67 429.971L71.1155 376.125L176.14 340.126C199.37 369.175 217.624 389.168 218.668 390.309C221.065 392.926 224.45 394.416 228 394.416C231.549 394.416 234.934 392.926 237.332 390.309C238.378 389.166 256.684 369.113 279.964 339.996L384.886 376.084L227.67 429.971Z" fill="#3D6889"/>
<path d="M228 209.861C263.858 209.861 293.03 180.689 293.03 144.831C293.03 108.973 263.858 79.8013 228 79.8013C192.142 79.8013 162.97 108.973 162.97 144.831C162.97 180.689 192.142 209.861 228 209.861ZM267.725 144.831C267.725 166.735 249.905 184.556 228 184.556C206.095 184.556 188.275 166.736 188.275 144.831C188.275 122.928 206.095 105.106 228 105.106C249.905 105.106 267.725 122.928 267.725 144.831Z" fill="#3D6889"/>
</svg>
