<svg width="256" height="256" viewBox="0 0 256 256" fill="none" xmlns="http://www.w3.org/2000/svg">
	<path d="M123.664 241.331H56.8932C38.7472 241.331 24.0239 226.553 24.0239 208.462V47.5382C24.0239 29.3922 38.8015 14.6689 56.8932 14.6689H124.751C128.825 14.6689 132.085 11.4092 132.085 7.33447C132.085 3.25976 128.825 0 124.751 0H56.8932C30.6521 0 9.35498 21.3514 9.35498 47.5382V208.462C9.35498 234.703 30.7064 256 56.8932 256H123.664C127.739 256 130.998 252.74 130.998 248.666C130.998 244.591 127.684 241.331 123.664 241.331Z" fill="#0067C0"/>
	<path d="M244.492 122.839L197.878 76.2241C194.998 73.3446 190.38 73.3446 187.501 76.2241C184.622 79.1036 184.622 83.7216 187.501 86.601L221.62 120.72H72.8117C68.737 120.72 65.4772 123.98 65.4772 128.054C65.4772 132.129 68.737 135.389 72.8117 135.389H221.62L187.501 169.508C184.622 172.387 184.622 177.005 187.501 179.885C188.914 181.297 190.815 182.058 192.662 182.058C194.509 182.058 196.411 181.351 197.824 179.885L244.438 133.27C247.372 130.336 247.372 125.664 244.492 122.839Z" fill="#0067C0"/>
</svg>
