<svg width="256" height="256" viewBox="0 0 256 256" fill="none" xmlns="http://www.w3.org/2000/svg">
	<path d="M243.73 203.471C234.78 173.169 189.858 176.531 170.468 167.829C151.08 159.127 154.106 129.93 151.648 124.851H104.348C101.894 129.93 104.921 159.131 85.5276 167.829C66.139 176.531 21.2121 173.17 12.2663 203.471C7.33103 220.184 7.5654 225.296 6.20337 243.81C6.20337 243.81 67.8437 255.999 126.606 255.999C185.368 255.999 249.797 243.81 249.797 243.81C248.43 225.291 248.665 220.185 243.73 203.471Z" fill="#636358"/>
	<path d="M243.73 203.471C234.78 173.169 189.858 176.531 170.468 167.829C151.08 159.127 154.106 129.93 151.648 124.851H126.602C126.602 124.851 126.025 165.803 145.413 174.505C164.802 183.207 209.729 179.846 218.675 210.147C223.376 226.063 223.384 231.458 224.553 247.928C239.99 245.668 249.789 243.814 249.789 243.814C248.43 225.291 248.665 220.185 243.73 203.471Z" fill="#515147"/>
	<path d="M149.519 255.44L160.982 174.433H95.0104L106.491 255.558C113.172 255.842 119.907 256 126.606 256C134.199 255.999 141.89 255.796 149.519 255.44Z" fill="#EAE5DC"/>
	<path d="M152.568 181.691C160.386 178.637 166.819 174.14 171.163 168.681L171.497 168.266C171.149 168.122 170.806 167.977 170.472 167.829C151.084 159.127 154.11 129.93 151.652 124.851H104.348C101.894 129.93 104.921 159.131 85.5276 167.829C85.1937 167.977 84.851 168.126 84.5034 168.266L84.8373 168.681C89.1819 174.135 95.6148 178.633 103.432 181.691C110.839 184.583 119.334 186.112 128 186.112C136.667 186.112 145.161 184.583 152.568 181.691Z" fill="#393C3D"/>
	<path d="M170.468 167.829C166.981 166.264 164.225 164.035 162.028 161.405C157.964 166.507 150.931 170.558 142.306 172.718C143.28 173.408 144.318 174.008 145.418 174.5C149.199 176.196 153.953 177.437 159.222 178.556C164.063 175.844 168.122 172.497 171.159 168.68L171.493 168.265C171.145 168.126 170.802 167.977 170.468 167.829Z" fill="#2F3233"/>
	<path d="M162.028 161.405C151.996 149.405 153.664 129.014 151.653 124.847H104.348C102.332 129.014 104.005 149.406 93.9726 161.405C100.117 169.118 113.046 174.433 128 174.433C142.954 174.433 155.883 169.118 162.028 161.405Z" fill="#DBB491"/>
	<path d="M142.305 172.718C150.931 170.558 157.963 166.506 162.027 161.405C151.995 149.405 153.663 129.014 151.652 124.847H126.606C126.607 124.851 126.092 161.279 142.305 172.718Z" fill="#CCA483"/>
	<path d="M97.9832 155.025C105.833 161.413 115.031 167.747 127.951 169.578C140.903 167.742 150.078 161.278 157.937 154.863C151.4 142.846 153.421 128.514 151.652 124.846H104.348C102.571 128.518 104.551 143.003 97.9832 155.025Z" fill="#C69E7F"/>
	<path d="M187.241 201.233L174.934 196.772L185.991 193.726L175.453 169.673L142.747 255.719C146.582 255.588 150.411 255.417 154.219 255.209L187.241 201.233Z" fill="#515147"/>
	<path d="M69.1752 193.722L80.232 196.768L67.9256 201.229L101.006 255.3C104.791 255.498 108.607 255.656 112.433 255.774L79.6501 169.936L69.1752 193.722Z" fill="#515147"/>
	<path d="M183.781 201.901L171.875 196.894L182.679 193.055L175.453 169.669L161.883 159.117L136.11 255.895C141.705 255.778 147.316 255.566 152.887 255.272L183.781 201.901Z" fill="#72726A"/>
	<path d="M161.879 159.117L156.84 178.032C163.693 179.593 171.596 180.847 179.45 182.616L175.449 169.669L161.879 159.117Z" fill="#636358"/>
	<path d="M79.6452 169.94L72.4812 193.059L83.2851 196.898L71.38 201.906L102.331 255.376C107.871 255.652 113.469 255.846 119.063 255.941L93.2776 159.127L79.6452 169.94Z" fill="#72726A"/>
	<path d="M174.227 93.4968C172.549 102.827 175.302 111.13 180.375 112.042C185.448 112.955 190.921 106.131 192.599 96.8008C194.277 87.4709 191.525 79.1678 186.451 78.2554C181.378 77.343 175.905 84.1668 174.227 93.4968Z" fill="#CCA483"/>
	<path d="M69.4086 78.2636C64.3353 79.176 61.5828 87.4791 63.2607 96.809C64.9386 106.139 70.4115 112.963 75.4849 112.05C80.5582 111.138 83.3107 102.835 81.6328 93.505C79.9549 84.175 74.4819 77.3512 69.4086 78.2636Z" fill="#DBB491"/>
	<path d="M179.495 38.0107H127.951H76.4332C76.4332 38.0107 47.5482 155.684 127.95 167.075C208.384 155.684 179.495 38.0107 179.495 38.0107Z" fill="#DBB491"/>
	<path d="M127.95 167.075C208.384 155.684 179.495 38.0107 179.495 38.0107H167.436C170.738 87.1641 175.308 113.275 156.348 141.74C141.327 164.296 127.95 167.075 127.95 167.075Z" fill="#CCA483"/>
	<path d="M189.244 42.779C184.651 24.5044 161.478 3.67194 128.001 3.67194C94.524 3.67194 71.3495 24.5044 66.757 42.779L72.9234 93.552C72.9683 87.99 73.1401 77.3883 73.6859 70.5629C74.4532 61.0215 79.1035 42.8192 94.7439 43.0535C100.572 43.1434 114.227 52.5949 127.996 52.5949C141.268 52.5949 154.652 43.153 161.248 43.0535C176.888 42.8192 181.54 61.0215 182.306 70.5629C182.857 77.3971 183.041 88.0574 183.086 93.6146L189.244 42.779Z" fill="#CCA483"/>
	<path d="M183.09 93.6106C198.013 77.1901 189.244 39.1071 189.244 39.1071C184.651 20.8325 161.478 0 128 0C94.5224 0 71.3495 20.8325 66.7522 39.1071C66.7522 39.1071 57.978 77.2174 72.9186 93.6291C72.9186 93.6291 72.9138 76.4284 73.6859 66.8918C74.458 57.3552 79.1035 39.148 94.7439 39.3824C100.572 39.4723 114.227 48.9238 127.996 48.9238C141.268 48.9238 154.652 39.4819 161.248 39.3824C176.889 39.148 181.54 57.3504 182.306 66.8918C183.073 76.4332 183.073 93.6291 183.073 93.6291C183.081 93.6203 183.086 93.6155 183.09 93.6106Z" fill="#3B3B3B"/>
</svg>
