<svg width="256" height="256" viewBox="0 0 256 256" fill="none" xmlns="http://www.w3.org/2000/svg">
<path d="M21.3334 149.333V42.6666C21.3334 30.9333 30.9334 21.3333 42.6667 21.3333H192C203.733 21.3333 213.333 30.9333 213.333 42.6666V149.333C213.333 161.067 203.733 170.667 192 170.667H42.6667C30.9334 170.667 21.3334 161.067 21.3334 149.333Z" fill="#546E7A"/>
<path d="M192 37.3334H42.6667C39.4667 37.3334 37.3334 39.4667 37.3334 42.6667V149.333C37.3334 152.533 39.4667 154.667 42.6667 154.667H192C195.2 154.667 197.333 152.533 197.333 149.333V42.6667C197.333 39.4667 195.2 37.3334 192 37.3334Z" fill="#BBDEFB"/>
<path d="M202.667 176H32C20.2666 176 10.6666 166.4 10.6666 154.667H224C224 166.4 214.4 176 202.667 176Z" fill="#37474F"/>
<path d="M128 213.333V85.3333C128 73.6 137.6 64 149.333 64H213.333C225.067 64 234.667 73.6 234.667 85.3333V213.333C234.667 225.067 225.067 234.667 213.333 234.667H149.333C137.6 234.667 128 225.067 128 213.333Z" fill="#E38939"/>
<path d="M213.333 80H149.333C146.133 80 144 82.1333 144 85.3333V202.667C144 205.867 146.133 208 149.333 208H213.333C216.533 208 218.667 205.867 218.667 202.667V85.3333C218.667 82.1333 216.533 80 213.333 80Z" fill="#FFF3E0"/>
<path d="M181.333 229.333C185.752 229.333 189.333 225.752 189.333 221.333C189.333 216.915 185.752 213.333 181.333 213.333C176.915 213.333 173.333 216.915 173.333 221.333C173.333 225.752 176.915 229.333 181.333 229.333Z" fill="#A6642A"/>
</svg>
