<svg width="456" height="456" viewBox="0 0 456 456" fill="none" xmlns="http://www.w3.org/2000/svg">
    <path d="M383.486 371.598C373.258 358.691 366.044 343.181 360.95 327.737H95.0479C89.9538 343.184 82.7401 358.693 72.5132 371.598H383.486Z" fill="#73D0F4"/>
    <path d="M424.785 372.738C376.326 350.854 374.483 256.919 374.446 254.549V191.53C374.446 130.878 337.383 78.7228 284.716 56.5159C284.604 25.3337 259.206 0 228 0C196.793 0 171.396 25.3348 171.283 56.5149C118.618 78.7217 81.5539 130.876 81.5539 191.529V254.548C81.5196 256.918 79.6744 350.853 31.2144 372.737C25.6937 375.23 22.6602 381.24 23.9364 387.162C25.2115 393.085 30.4482 397.315 36.5068 397.315H159.358C161.877 411.169 168.428 424.058 178.447 434.498C191.755 448.363 209.353 455.999 227.998 455.999C246.644 455.999 264.242 448.363 277.549 434.498C287.57 424.058 294.12 411.168 296.637 397.315H419.489C425.548 397.315 430.784 393.086 432.06 387.162C433.338 381.24 430.305 375.232 424.785 372.738ZM360.95 327.738C366.044 343.182 373.258 358.692 383.486 371.599H72.5121C82.739 358.694 89.9527 343.185 95.0469 327.738H360.95ZM228 25.7173C242.116 25.7173 254.051 35.2027 257.785 48.131C248.165 46.1358 238.202 45.0835 228 45.0835C217.798 45.0835 207.836 46.1347 198.215 48.131C201.949 35.2027 213.884 25.7173 228 25.7173ZM107.271 254.627V191.529C107.271 124.959 161.43 70.8008 228 70.8008C294.57 70.8008 348.729 124.959 348.729 191.529V254.732C348.746 256.666 349.047 276.995 354.17 302.02H101.827C106.953 276.971 107.255 256.606 107.271 254.627ZM228 430.283C208.373 430.283 191.245 416.132 185.746 397.315H270.252C264.754 416.132 247.628 430.283 228 430.283Z" fill="#3D6889"/>
    <path d="M228 88.8415C172.677 88.8415 127.667 133.849 127.667 189.172C127.667 196.273 133.425 202.031 140.526 202.031C147.627 202.031 153.384 196.273 153.384 189.172C153.384 148.03 186.857 114.559 228 114.559C235.101 114.559 240.859 108.801 240.859 101.7C240.859 94.5979 235.101 88.8415 228 88.8415Z" fill="#3D6889"/>
</svg>
