<svg width="256" height="256" viewBox="0 0 256 256" fill="none" xmlns="http://www.w3.org/2000/svg">
	<path d="M243.725 203.473C234.776 173.173 189.855 176.534 170.466 167.832C151.078 159.131 154.105 129.935 151.647 124.855H104.349C101.894 129.935 104.922 159.135 85.5289 167.832C66.1409 176.534 21.2155 173.173 12.2699 203.473C7.33481 220.186 7.56917 225.298 6.20718 243.811C6.20718 243.811 67.8456 256 126.606 256C185.366 256 249.793 243.811 249.793 243.811C248.426 225.293 248.66 220.187 243.725 203.473Z" fill="#9E6F4C"/>
	<path d="M137.342 176.629L167.652 166.33L167.656 166.325C151.381 156.184 153.984 129.669 151.651 124.846H104.349C101.989 129.731 104.691 156.906 87.6718 166.726L87.6766 166.731L117.824 176.624L127.956 202.729L137.342 176.629Z" fill="#E8C59E"/>
	<path d="M243.725 203.473C234.776 173.173 189.855 176.534 170.466 167.832C151.078 159.131 154.105 129.935 151.647 124.855H126.601C126.601 124.855 126.024 165.806 145.412 174.508C164.8 183.21 209.725 179.849 218.671 210.149C223.372 226.064 223.381 231.459 224.549 247.929C239.986 245.669 249.784 243.815 249.784 243.815C248.426 225.293 248.66 220.187 243.725 203.473Z" fill="#8E633F"/>
	<path d="M144.659 174.143L167.648 166.335L167.652 166.33C151.377 156.189 153.98 129.673 151.647 124.851H126.602C126.606 124.855 126.043 164.729 144.659 174.143Z" fill="#DDB58E"/>
	<path d="M97.9834 155.03C105.833 161.418 115.03 167.751 127.95 169.583C140.902 167.746 150.077 161.282 157.935 154.868C151.399 142.851 153.419 128.519 151.651 124.851H104.348C102.572 128.523 104.552 143.008 97.9834 155.03Z" fill="#CCA281"/>
	<path d="M167.652 166.335L156.248 201.344L137.342 176.629L167.652 166.335Z" fill="#7F5732"/>
	<path d="M87.6718 166.736L99.1383 201.344L117.818 176.629L87.6718 166.736Z" fill="#7F5732"/>
	<path d="M117.818 176.629L97.176 153.726C97.176 153.726 94.456 157.592 87.671 166.736L99.7828 196.757L117.818 176.629Z" fill="#8E633F"/>
	<path d="M137.342 176.629L157.985 153.726C157.985 153.726 160.867 157.186 167.652 166.33L155.377 196.757L137.342 176.629Z" fill="#8E633F"/>
	<path d="M141.442 172.082C142.665 173.047 143.987 173.864 145.417 174.509C149.959 176.548 155.9 177.924 162.45 179.223L167.652 166.335C160.867 157.192 157.985 153.732 157.985 153.732L141.442 172.082Z" fill="#7F5732"/>
	<path d="M128 221.076C131.117 221.076 133.643 218.549 133.643 215.433C133.643 212.316 131.117 209.79 128 209.79C124.883 209.79 122.357 212.316 122.357 215.433C122.357 218.549 124.883 221.076 128 221.076Z" fill="#EAE5DC"/>
	<path d="M128 241.095C131.117 241.095 133.643 238.569 133.643 235.452C133.643 232.336 131.117 229.809 128 229.809C124.883 229.809 122.357 232.336 122.357 235.452C122.357 238.569 124.883 241.095 128 241.095Z" fill="#EAE5DC"/>
	<path d="M133.62 255.945C133.634 255.792 133.643 255.634 133.643 255.476C133.643 252.359 131.116 249.833 128 249.833C124.884 249.833 122.357 252.359 122.357 255.476C122.357 255.648 122.366 255.815 122.38 255.977C123.787 255.99 125.199 255.999 126.606 255.999C128.933 256 131.275 255.982 133.62 255.945Z" fill="#EAE5DC"/>
	<path d="M174.226 93.503C172.548 102.833 175.3 111.135 180.373 112.048C185.447 112.96 190.919 106.137 192.597 96.8069C194.275 87.4773 191.523 79.1745 186.449 78.2621C181.376 77.3497 175.904 84.1733 174.226 93.503Z" fill="#DDB58E"/>
	<path d="M69.4103 78.2706C64.3371 79.183 61.5847 87.4858 63.2626 96.8155C64.9404 106.145 70.4132 112.969 75.4864 112.056C80.5595 111.144 83.312 102.841 81.6341 93.5115C79.9563 84.1818 74.4835 77.3583 69.4103 78.2706Z" fill="#E8C59E"/>
	<path d="M179.493 38.0192H127.95H76.4349C76.4349 38.0192 47.5507 155.689 127.95 167.079C208.382 155.688 179.493 38.0192 179.493 38.0192Z" fill="#E8C59E"/>
	<path d="M127.95 167.079C208.382 155.688 179.493 38.0184 179.493 38.0184H167.435C170.737 87.1702 175.307 113.28 156.347 141.744C141.325 164.3 127.95 167.079 127.95 167.079Z" fill="#DDB58E"/>
	<path d="M187.807 136.039C187.807 132.913 186.652 130.062 184.744 127.883C186.237 125.835 187.126 123.323 187.126 120.598C187.126 116.732 185.349 113.29 182.57 111.017H177.017C177.405 112.216 177.626 113.488 177.626 114.819C177.626 121.667 172.073 127.22 165.225 127.22C164.869 127.22 164.571 127.211 164.229 127.179C164.233 127.184 164.237 127.188 164.242 127.197C163.547 127.075 162.835 126.998 162.104 126.998C159.875 126.998 157.792 127.594 155.983 128.622C153.723 126.222 150.52 124.711 146.961 124.711C143.375 124.711 140.154 126.24 137.889 128.677C135.629 125.623 132.016 123.638 127.925 123.638C123.838 123.638 120.22 125.628 117.96 128.677C115.695 126.245 112.474 124.711 108.888 124.711C105.329 124.711 102.126 126.217 99.8663 128.622C98.0572 127.593 95.9729 126.998 93.7449 126.998C93.0997 126.998 92.468 127.062 91.85 127.156C91.8549 127.148 91.8589 127.139 91.8677 127.134C91.525 127.161 91.2361 127.175 90.8797 127.175C84.0321 127.175 78.479 121.622 78.479 114.774C78.479 113.461 78.6909 112.203 79.0745 111.017H73.499C70.7204 113.29 68.9427 116.728 68.9427 120.598C68.9427 123.327 69.836 125.839 71.3288 127.888C69.4203 130.067 68.2613 132.917 68.2613 136.039C68.2613 140.347 70.458 144.141 73.7959 146.365C72.9934 148.007 72.5287 149.852 72.5287 151.805C72.5287 158.382 77.6531 163.749 84.1308 164.164C84.5409 170.642 89.9094 175.775 96.4954 175.775C97.3839 175.775 98.2547 175.676 99.0893 175.5C100.434 180.895 105.297 184.897 111.111 184.897C113.421 184.897 115.573 184.256 117.422 183.155C119.592 186.764 123.53 189.182 128.046 189.182C132.562 189.182 136.499 186.76 138.67 183.155C140.519 184.251 142.67 184.897 144.98 184.897C150.79 184.897 155.658 180.896 157.002 175.5C157.841 175.681 158.708 175.775 159.596 175.775C166.177 175.775 171.546 170.646 171.961 164.164C178.434 163.749 183.563 158.381 183.563 151.805C183.563 149.851 183.098 148.011 182.296 146.365C185.61 144.14 187.807 140.347 187.807 136.039Z" fill="#565656"/>
	<path d="M183.865 29.5198C171.369 1.70549 147.434 0 127.919 0C108.404 0 84.4639 1.70549 71.9684 29.5198C69.2798 35.5015 69.1313 51.7771 69.1313 65.2243C69.1313 86.3451 71.942 92.4215 71.942 92.4215L76.8859 93.7433C79.0512 76.056 79.8723 52.7474 79.922 51.3308C82.7592 53.7667 86.4446 55.2418 90.4776 55.2418C93.3019 55.2418 95.9537 54.5203 98.2683 53.2522C101.246 56.8879 105.765 59.2114 110.836 59.2114C113.47 59.2114 115.956 58.5798 118.157 57.4658C120.882 59.5364 124.283 60.7724 127.969 60.7724C131.659 60.7724 135.056 59.5412 137.78 57.4658C139.982 58.5798 142.467 59.2114 145.101 59.2114C150.167 59.2114 154.692 56.8879 157.669 53.2522C159.983 54.5195 162.635 55.2418 165.46 55.2418C169.443 55.2418 173.092 53.8028 175.917 51.4207C175.989 53.505 176.819 76.349 178.948 93.7474L183.892 92.4255C183.892 92.4255 186.703 86.3443 186.703 65.2284C186.702 51.7819 186.553 35.5015 183.865 29.5198Z" fill="#565656"/>
</svg>
