<svg width="256" height="256" viewBox="0 0 256 256" fill="none" xmlns="http://www.w3.org/2000/svg">
  <path d="M250.7 58.965H5.30005V230.162H250.7V58.965Z" fill="#EDEDED"/>
  <path d="M229.234 80.9605H26.7661V208.166H229.234V80.9605Z" fill="#FFBC52"/>
  <path d="M229.234 213.466H26.7661C23.8391 213.466 21.4661 211.093 21.4661 208.166V80.961C21.4661 78.0335 23.8396 75.661 26.7661 75.661H229.234C232.161 75.661 234.534 78.034 234.534 80.961V208.166C234.534 211.093 232.161 213.466 229.234 213.466ZM32.0666 202.866H223.934V86.261H32.0666V202.866Z" fill="black"/>
  <path d="M37.8964 25.8385C32.0419 25.8385 27.2959 30.5845 27.2959 36.439V58.7H48.4969V36.439C48.4969 30.5845 43.7509 25.8385 37.8964 25.8385Z" fill="#D1392A"/>
  <path d="M128 25.8385C122.145 25.8385 117.399 30.5845 117.399 36.439V58.7H138.6V36.439C138.6 30.5845 133.854 25.8385 128 25.8385Z" fill="#D1392A"/>
  <path d="M218.103 25.8385C223.958 25.8385 228.704 30.5845 228.704 36.439V58.7H207.503V36.439C207.503 30.5845 212.249 25.8385 218.103 25.8385Z" fill="#D1392A"/>
  <path d="M250.7 53.6645H234.005V36.439C234.005 27.6715 226.872 20.5385 218.104 20.5385C209.337 20.5385 202.204 27.6715 202.204 36.439V53.6645H143.9V36.439C143.9 27.6715 136.767 20.5385 128 20.5385C119.233 20.5385 112.1 27.6715 112.1 36.439V53.6645H53.797V36.439C53.797 27.6715 46.664 20.5385 37.8965 20.5385C29.129 20.5385 21.996 27.6715 21.996 36.439V53.6645H5.3C2.373 53.6645 0 56.0375 0 58.9645V230.161C0 233.089 2.3735 235.461 5.3 235.461H250.7C253.627 235.461 256 233.088 256 230.161V58.965C256 56.0375 253.626 53.6645 250.7 53.6645ZM212.803 36.439C212.803 33.5165 215.181 31.139 218.104 31.139C221.026 31.139 223.404 33.5165 223.404 36.439V53.3995H212.803V36.439H212.803ZM122.7 36.439C122.7 33.5165 125.078 31.139 128 31.139C130.922 31.139 133.3 33.5165 133.3 36.439V53.3995H122.7V36.439ZM32.5965 36.439C32.5965 33.5165 34.974 31.139 37.8965 31.139C40.819 31.139 43.1965 33.5165 43.1965 36.439V53.3995H32.5965V36.439ZM245.4 224.862H10.6005V64.265H245.4V224.862V224.862Z" fill="black"/>
  <path d="M144.96 173.582H114.03C111.741 173.582 109.71 172.112 108.995 169.937C108.28 167.763 109.042 165.375 110.884 164.016C124.285 154.125 138.75 139.552 138.75 133.257C138.75 127.501 133.887 122.637 128.131 122.637C122.275 122.637 117.511 127.401 117.511 133.257C117.511 136.185 115.137 138.557 112.211 138.557C109.284 138.557 106.911 136.184 106.911 133.257C106.911 121.557 116.43 112.037 128.131 112.037C139.832 112.037 149.351 121.556 149.351 133.257C149.351 140.206 143.903 148.771 132.695 159.441C131.398 160.676 130.103 161.862 128.847 162.981H144.961C147.888 162.981 150.261 165.354 150.261 168.281C150.261 171.209 147.887 173.582 144.96 173.582Z" fill="black"/>
  <path d="M128.53 197.962C99.0125 197.962 74.998 173.948 74.998 144.43C74.998 114.913 99.0125 90.8985 128.53 90.8985C131.457 90.8985 133.83 93.2715 133.83 96.1985C133.83 99.1255 131.457 101.498 128.53 101.498C104.858 101.498 85.5985 120.757 85.5985 144.43C85.5985 168.102 104.858 187.361 128.53 187.361C152.202 187.361 171.462 168.102 171.462 144.43C171.462 133.772 167.53 123.552 160.39 115.654C158.427 113.482 158.596 110.131 160.768 108.168C162.939 106.205 166.291 106.374 168.254 108.546C177.159 118.397 182.062 131.14 182.062 144.43C182.062 173.948 158.048 197.962 128.53 197.962Z" fill="black"/>
  <path d="M151.314 107.324C150.424 107.324 149.522 107.1 148.694 106.628C146.971 105.646 145.148 104.828 143.274 104.199C140.499 103.266 139.005 100.261 139.937 97.487C140.87 94.7125 143.873 93.2185 146.649 94.1505C149.172 94.998 151.625 96.0975 153.942 97.418C156.486 98.867 157.373 102.104 155.923 104.647C154.946 106.362 153.156 107.324 151.314 107.324Z" fill="black"/>
</svg>
