<svg width="256" height="256" viewBox="0 0 256 256" fill="none" xmlns="http://www.w3.org/2000/svg">
	<path fill-rule="evenodd" clip-rule="evenodd" d="M170.667 96C170.667 119.564 151.564 138.667 128 138.667C104.436 138.667 85.3333 119.564 85.3333 96C85.3333 72.4358 104.436 53.3333 128 53.3333C151.564 53.3333 170.667 72.4358 170.667 96ZM149.333 96C149.333 107.782 139.782 117.333 128 117.333C116.218 117.333 106.667 107.782 106.667 96C106.667 84.2179 116.218 74.6667 128 74.6667C139.782 74.6667 149.333 84.2179 149.333 96Z" fill="#0067C0"/>
	<path fill-rule="evenodd" clip-rule="evenodd" d="M128 10.6667C63.1986 10.6667 10.6667 63.1986 10.6667 128C10.6667 192.801 63.1986 245.333 128 245.333C192.801 245.333 245.333 192.801 245.333 128C245.333 63.1986 192.801 10.6667 128 10.6667ZM32 128C32 150.295 39.6005 170.816 52.3518 187.111C69.8928 164.148 97.5602 149.333 128.688 149.333C159.411 149.333 186.765 163.766 204.336 186.222C216.672 170.073 224 149.892 224 128C224 74.9807 181.02 32 128 32C74.9807 32 32 74.9807 32 128ZM128 224C105.064 224 84.0069 215.956 67.4951 202.537C80.9975 183.266 103.371 170.667 128.688 170.667C153.69 170.667 175.822 182.956 189.374 201.823C172.735 215.67 151.34 224 128 224Z" fill="#0067C0"/>
</svg>
