<svg width="456" height="456" viewBox="0 0 456 456" fill="none" xmlns="http://www.w3.org/2000/svg">
    <path d="M293.143 0V162.857H456V0H293.143ZM423.429 130.286H325.714V32.5714H423.429V130.286Z" fill="#323232"/>
    <path d="M97.7143 65.1429H65.1429V97.7143H97.7143V65.1429Z" fill="#323232"/>
    <path d="M390.857 65.1429H358.286V97.7143H390.857V65.1429Z" fill="#323232"/>
    <path d="M260.571 65.1429H228V32.5714H260.571V0H195.429V97.7143H228V130.286H260.571V65.1429Z" fill="#323232"/>
    <path d="M162.857 162.857V0H0V162.857H32.5714H162.857ZM32.5714 32.5714H130.286V130.286H32.5714V32.5714Z" fill="#323232"/>
    <path d="M0 195.429V260.571H32.5714V228H65.1429V195.429H0Z" fill="#323232"/>
    <path d="M228 228H260.571V162.857H228V130.286H195.429V195.429H228V228Z" fill="#323232"/>
    <path d="M390.857 195.429H358.286V228H390.857V195.429Z" fill="#323232"/>
    <path d="M456 195.429H423.429V228H456V195.429Z" fill="#323232"/>
    <path d="M325.714 260.571V293.143H358.286V325.714H390.857V260.571H358.286V228H325.714V195.429H293.143V228H260.571V260.571H325.714Z" fill="#323232"/>
    <path d="M423.429 228H390.857V260.571H423.429V228Z" fill="#323232"/>
    <path d="M0 293.143V456H162.857V293.143H0ZM130.286 423.429H32.5714V325.714H130.286V423.429Z" fill="#323232"/>
    <path d="M260.571 260.571H228V228H195.429V195.429H97.7143V228H65.1429V260.571H130.286V228H162.857V260.571H195.429V293.143H228V325.714H260.571V260.571Z" fill="#323232"/>
    <path d="M325.714 293.143H293.143V325.714H325.714V293.143Z" fill="#323232"/>
    <path d="M456 260.571H423.429V325.714H456V260.571Z" fill="#323232"/>
    <path d="M358.286 325.714H325.714V358.286H358.286V325.714Z" fill="#323232"/>
    <path d="M423.429 325.714H390.857V358.286H423.429V325.714Z" fill="#323232"/>
    <path d="M97.7143 358.286H65.1429V390.857H97.7143V358.286Z" fill="#323232"/>
    <path d="M325.714 390.857V358.286H293.143V325.714H260.571V358.286H228V325.714H195.429V390.857H228V423.429H260.571V390.857H325.714Z" fill="#323232"/>
    <path d="M358.286 390.857H325.714V423.429H358.286V456H390.857V358.286H358.286V390.857Z" fill="#323232"/>
    <path d="M456 358.286H423.429V390.857H456V358.286Z" fill="#323232"/>
    <path d="M228 423.429H195.429V456H228V423.429Z" fill="#323232"/>
    <path d="M325.714 423.429H260.571V456H325.714V423.429Z" fill="#323232"/>
    <path d="M456 423.429H423.429V456H456V423.429Z" fill="#323232"/>
</svg>
