<svg width="256" height="256" viewBox="0 0 256 256" fill="none" xmlns="http://www.w3.org/2000/svg">
  <path d="M128 256C198.692 256 256 198.692 256 128C256 57.3076 198.692 0 128 0C57.3076 0 0 57.3076 0 128C0 198.692 57.3076 256 128 256Z" fill="#FFD05B"/>
  <path d="M96.0397 54.7358V84.4662H66.3093V213.528H200.786V54.7358H96.0397Z" fill="#ACB3BA"/>
  <path d="M84.944 201.264V171.534H55.2136V42.472H189.691V201.264H84.944Z" fill="white"/>
  <path d="M84.944 201.264L55.2136 171.534H84.944V201.264Z" fill="#CED5E0"/>
  <path d="M169.888 105.224H74.9631V110.905H169.888V105.224Z" fill="#CED5E0"/>
  <path d="M169.888 120.249H74.9631V125.929H169.888V120.249Z" fill="#CED5E0"/>
  <path d="M169.888 135.326H74.9631V141.007H169.888V135.326Z" fill="#CED5E0"/>
  <path d="M131.557 150.404H74.9631V156.085H131.557V150.404Z" fill="#CED5E0"/>
  <path d="M87.5453 69.6541C87.5453 72.3086 86.4835 74.0075 84.413 74.8039L88.6071 80.6968H84.0945L80.4313 75.4409H77.8829V80.6968H74.2197V64.1859H80.4843C83.0327 64.1859 84.8908 64.6106 85.9526 65.46C86.9613 66.3095 87.5453 67.7429 87.5453 69.6541ZM83.0858 71.6185C83.5636 71.1937 83.7759 70.5567 83.7759 69.6541C83.7759 68.7516 83.5636 68.1676 83.0858 67.8491C82.6079 67.5305 81.8116 67.3713 80.5905 67.3713H77.8298V72.2555H80.5374C81.7585 72.2024 82.661 71.9901 83.0858 71.6185Z" fill="#54C0EB"/>
  <path d="M103.207 64.1858V67.4774H94.9779V70.8752H102.357V74.0075H94.9779V77.4053H103.472V80.6437H91.3147V64.1328H103.207V64.1858Z" fill="#54C0EB"/>
  <path d="M118.125 65.6193C119.293 66.628 119.877 68.1145 119.877 70.1319C119.877 72.1493 119.293 73.6359 118.072 74.5915C116.904 75.5471 115.046 76.0249 112.604 76.0249H110.427V80.6437H106.764V64.1328H112.604C115.099 64.1858 116.957 64.6636 118.125 65.6193ZM115.418 72.1493C115.842 71.6715 116.055 70.9283 116.055 69.9727C116.055 69.017 115.789 68.3269 115.205 67.9552C114.621 67.5305 113.719 67.3712 112.551 67.3712H110.427V72.9457H112.922C114.143 72.8926 114.993 72.6271 115.418 72.1493Z" fill="#54C0EB"/>
  <path d="M136.6 78.414C134.955 80.0597 132.884 80.8561 130.442 80.8561C128 80.8561 125.929 80.0597 124.284 78.414C122.638 76.7682 121.788 74.7507 121.788 72.3086C121.788 69.8665 122.638 67.849 124.284 66.2032C125.929 64.5575 128 63.7611 130.442 63.7611C132.884 63.7611 134.955 64.5575 136.6 66.2032C138.246 67.849 139.096 69.8665 139.096 72.3086C139.096 74.7507 138.299 76.7682 136.6 78.414ZM135.379 72.3086C135.379 70.8221 134.902 69.601 133.946 68.5392C132.99 67.4774 131.822 66.9996 130.442 66.9996C129.062 66.9996 127.894 67.5305 126.938 68.5392C125.982 69.601 125.505 70.8221 125.505 72.3086C125.505 73.7951 125.982 75.0162 126.938 76.078C127.894 77.0867 129.062 77.6176 130.442 77.6176C131.822 77.6176 132.99 77.0867 133.946 76.078C134.902 75.0693 135.379 73.7951 135.379 72.3086Z" fill="#54C0EB"/>
  <path d="M155.607 69.6541C155.607 72.3086 154.545 74.0075 152.475 74.8039L156.669 80.6968H152.156L148.493 75.4409H145.944V80.6968H142.281V64.1859H148.546C151.094 64.1859 152.952 64.6106 154.014 65.46C155.076 66.3095 155.607 67.7429 155.607 69.6541ZM151.2 71.6185C151.678 71.1937 151.891 70.5567 151.891 69.6541C151.891 68.7516 151.678 68.1676 151.2 67.8491C150.723 67.5305 149.926 67.3713 148.705 67.3713H145.944V72.2555H148.652C149.873 72.2024 150.723 71.9901 151.2 71.6185Z" fill="#54C0EB"/>
  <path d="M166.066 67.3713V80.6968H162.402V67.3713H157.73V64.1859H170.738V67.3713H166.066Z" fill="#54C0EB"/>
</svg>
