<svg width="456" height="456" viewBox="0 0 456 456" fill="none" xmlns="http://www.w3.org/2000/svg">
    <path d="M359.884 445.384L352.616 438.116L400.867 389.88H228C123.02 389.88 37.62 304.48 37.62 199.5C37.62 94.5202 123.02 9.12 228 9.12C332.98 9.12 418.38 94.5202 418.38 199.5H408.12C408.12 100.177 327.322 19.38 228 19.38C128.677 19.38 47.88 100.177 47.88 199.5C47.88 298.822 128.677 379.62 228 379.62H400.867L352.616 331.384L359.884 324.116L420.503 384.75L359.884 445.384ZM254.206 318.63H201.808V289.304L188.1 283.575L167.338 304.337L130.273 267.287L151.007 246.568L145.364 232.816H115.995V180.419H145.293L151.036 166.711L130.273 145.948L167.338 108.898L188.057 129.618L201.808 123.975V94.62H254.206V123.918L267.914 129.661L288.676 108.898L325.741 145.948L305.021 166.668L310.664 180.419H340.033V232.816H310.721L304.993 246.525L325.755 267.287L288.691 304.337L267.971 283.618L254.206 289.275V318.63ZM212.054 308.37H243.931V282.407L270.365 271.548L288.662 289.845L311.22 267.301L292.823 248.933L303.867 222.571H329.717V190.693H303.753L292.909 164.26L311.206 145.963L288.648 123.419L270.308 141.787L243.931 130.758V104.88H212.054V130.872L185.62 141.702L167.323 123.419L144.78 145.963L163.148 164.331L152.119 190.693H126.255V222.571H152.233L163.077 249.005L144.78 267.301L167.323 289.845L185.692 271.477L212.054 282.492C212.054 282.492 212.054 308.37 212.054 308.37Z" fill="black"/>
</svg>
