<svg width="456" height="456" viewBox="0 0 456 456" fill="none" xmlns="http://www.w3.org/2000/svg">
    <path d="M444.606 134.754L321.245 11.3951C313.897 4.04688 304.128 0 293.736 0H31.0238C13.9174 0 0 13.9174 0 31.0238V424.976C0 442.083 13.9174 456 31.0238 456H424.976C442.083 456 456 442.083 456 424.976V162.264C456 151.874 451.954 142.104 444.606 134.754ZM69.9266 14.7732H275.767V117.693C275.767 130.999 264.942 141.823 251.637 141.823H94.0562C80.7514 141.823 69.9266 130.999 69.9266 117.693V14.7732ZM386.073 441.227H69.9266V275.274C69.9266 261.969 80.7514 251.145 94.0562 251.145H361.944C375.249 251.145 386.073 261.969 386.073 275.274V441.227ZM441.227 424.976C441.227 433.938 433.937 441.227 424.976 441.227H400.847V275.274C400.847 253.824 383.395 236.371 361.944 236.371H94.0562C72.6054 236.371 55.1533 253.824 55.1533 275.274V441.227H31.0238C22.0633 441.227 14.7732 433.938 14.7732 424.976V31.0238C14.7732 22.0623 22.0633 14.7732 31.0238 14.7732H55.1533V117.693C55.1533 139.144 72.6054 156.596 94.0562 156.596H251.637C273.088 156.596 290.54 139.144 290.54 117.693V14.7732H293.736C300.181 14.7732 306.241 17.2837 310.798 21.8417L434.159 145.201C438.716 149.76 441.227 155.819 441.227 162.264V424.976Z" fill="black"/>
    <path d="M204.363 125.08H251.637C255.716 125.08 259.024 121.774 259.024 117.693V38.9028C259.024 34.8224 255.716 31.5162 251.637 31.5162H204.363C200.283 31.5162 196.976 34.8224 196.976 38.9028V117.693C196.976 121.774 200.283 125.08 204.363 125.08ZM211.749 46.2894H244.25V110.307H211.749V46.2894Z" fill="black"/>
    <path d="M338.307 307.283H196.485C192.405 307.283 189.098 310.589 189.098 314.67C189.098 318.75 192.405 322.056 196.485 322.056H338.307C342.386 322.056 345.693 318.75 345.693 314.67C345.693 310.589 342.386 307.283 338.307 307.283Z" fill="black"/>
    <path d="M117.693 322.056H164.97C169.049 322.056 172.356 318.75 172.356 314.67C172.356 310.589 169.049 307.283 164.97 307.283H117.693C113.614 307.283 110.307 310.589 110.307 314.67C110.307 318.75 113.614 322.056 117.693 322.056Z" fill="black"/>
    <path d="M338.307 370.315H117.693C113.614 370.315 110.307 373.622 110.307 377.702C110.307 381.782 113.614 385.089 117.693 385.089H338.307C342.386 385.089 345.693 381.782 345.693 377.702C345.693 373.622 342.386 370.315 338.307 370.315Z" fill="black"/>
</svg>
