<svg width="256" height="256" viewBox="0 0 256 256" fill="none" xmlns="http://www.w3.org/2000/svg">
	<path d="M242.821 99.5556H218.871C215.021 99.5556 211.849 97.4364 210.375 93.8809C208.901 90.3253 209.65 86.5801 212.366 83.859L229.3 66.9298C231.789 64.4409 233.159 61.1271 233.159 57.6095C233.159 54.0871 231.789 50.7781 229.3 48.2844L207.716 26.6999C202.738 21.7221 194.057 21.7126 189.07 26.6999L172.141 43.629C169.42 46.3455 165.665 47.104 162.119 45.6249C158.564 44.1505 156.444 40.979 156.444 37.1295V13.1793C156.444 5.9117 150.533 0 143.265 0H112.735C105.467 0 99.5556 5.9117 99.5556 13.1793V37.1295C99.5556 40.979 97.4364 44.1505 93.8809 45.6249C90.3348 47.1087 86.5801 46.3455 83.859 43.629L66.9298 26.6999C61.9425 21.7126 53.2622 21.7221 48.2844 26.6999L26.6999 48.2844C24.211 50.7733 22.8409 54.0871 22.8409 57.6095C22.8409 61.1271 24.211 64.4361 26.6999 66.9298L43.6338 83.859C46.3502 86.5801 47.0945 90.3253 45.6249 93.8809C44.1553 97.4364 40.979 99.5556 37.1295 99.5556H13.1793C5.9117 99.5556 0 105.467 0 112.735V143.26C0 150.533 5.9117 156.444 13.1793 156.444H37.1295C40.979 156.444 44.1505 158.564 45.6249 162.119C47.0993 165.675 46.3502 169.42 43.6338 172.141L26.6999 189.07C24.211 191.559 22.8409 194.873 22.8409 198.391C22.8409 201.913 24.211 205.222 26.6999 207.716L48.2844 229.3C53.267 234.283 61.9425 234.292 66.9298 229.3L83.859 212.366C86.5801 209.65 90.3206 208.901 93.8809 210.375C97.4364 211.849 99.5556 215.021 99.5556 218.871V242.821C99.5556 250.088 105.467 256 112.735 256H143.26C150.528 256 156.44 250.088 156.44 242.821V218.871C156.44 215.021 158.559 211.849 162.114 210.375C165.675 208.896 169.415 209.65 172.136 212.366L189.065 229.3C194.053 234.287 202.733 234.278 207.711 229.3L229.295 207.716C231.784 205.227 233.154 201.913 233.154 198.391C233.154 194.873 231.784 191.564 229.295 189.07L212.361 172.141C209.645 169.42 208.901 165.675 210.37 162.119C211.84 158.564 215.021 156.444 218.871 156.444H242.821C250.088 156.444 256 150.533 256 143.265V112.735C256 105.467 250.088 99.5556 242.821 99.5556ZM246.519 143.265C246.519 145.304 244.859 146.963 242.821 146.963H218.871C211.172 146.963 204.558 151.381 201.614 158.492C198.665 165.604 200.216 173.407 205.663 178.849L222.597 195.778C224.043 197.224 224.043 199.571 222.597 201.012L201.012 222.597C199.571 224.038 197.224 224.047 195.778 222.597L178.849 205.663C173.402 200.216 165.604 198.675 158.492 201.614C151.381 204.558 146.963 211.172 146.963 218.871V242.821C146.963 244.859 145.304 246.519 143.265 246.519H112.735C110.696 246.519 109.037 244.859 109.037 242.821V218.871C109.037 211.172 104.619 204.558 97.5076 201.614C95.123 200.623 92.6673 200.14 90.24 200.14C85.4329 200.14 80.7727 202.036 77.1508 205.658L60.2216 222.592C58.771 224.043 56.4243 224.033 54.9879 222.592L33.4033 201.007C31.9573 199.561 31.9573 197.215 33.4033 195.774L50.3372 178.844C55.7796 173.402 57.3345 165.599 54.3858 158.488C51.4418 151.381 44.8284 146.963 37.1295 146.963H13.1793C11.1407 146.963 9.48148 145.304 9.48148 143.265V112.735C9.48148 110.696 11.1407 109.037 13.1793 109.037H37.1295C44.8284 109.037 51.4418 104.619 54.3858 97.5076C57.3345 90.3964 55.7843 82.5932 50.3372 77.1508L33.4033 60.2216C31.9573 58.7757 31.9573 56.429 33.4033 54.9879L54.9879 33.4033C56.429 31.9573 58.7757 31.9573 60.2216 33.4033L77.1508 50.3324C82.5884 55.7701 90.387 57.3298 97.5076 54.381C104.619 51.4418 109.037 44.8284 109.037 37.1295V13.1793C109.037 11.1407 110.696 9.48148 112.735 9.48148H143.26C145.304 9.48148 146.963 11.1407 146.963 13.1793V37.1295C146.963 44.8284 151.381 51.4418 158.492 54.3858C165.613 57.3345 173.407 55.7796 178.849 50.3372L195.778 33.408C197.229 31.9621 199.576 31.9621 201.012 33.408L222.597 54.9926C224.043 56.4385 224.043 58.7852 222.597 60.2264L205.663 77.1556C200.22 82.5979 198.665 90.4012 201.614 97.5123C204.558 104.623 211.172 109.042 218.871 109.042H242.821C244.859 109.037 246.519 110.696 246.519 112.735V143.265Z" fill="#0067C0"/>
	<path d="M128 85.3333C104.472 85.3333 85.3333 104.472 85.3333 128C85.3333 151.528 104.472 170.667 128 170.667C151.528 170.667 170.667 151.528 170.667 128C170.667 104.472 151.528 85.3333 128 85.3333ZM128 161.185C109.705 161.185 94.8148 146.295 94.8148 128C94.8148 109.705 109.705 94.8148 128 94.8148C146.295 94.8148 161.185 109.705 161.185 128C161.185 146.295 146.295 161.185 128 161.185Z" fill="#0067C0"/>
</svg>
