<svg width="256" height="256" viewBox="0 0 256 256" fill="none" xmlns="http://www.w3.org/2000/svg">
  <path d="M250.776 175.02V193.306H5.22461V175.02H13.0613H242.939H250.776Z" fill="#AFB6BB"/>
  <path d="M151.51 5.22449H104.49V23.5102H151.51V5.22449Z" fill="#AFB6BB"/>
  <path d="M242.939 23.5102V175.02H13.0615V23.5102H104.49H151.511H242.939Z" fill="white"/>
  <path d="M250.775 169.796H248.163V23.5102C248.163 20.6247 245.824 18.2857 242.939 18.2857H156.735V5.22449C156.735 2.339 154.396 0 151.51 0H104.49C101.604 0 99.2653 2.339 99.2653 5.22449V18.2857H13.0612C10.1757 18.2857 7.83673 20.6247 7.83673 23.5102V169.796H5.22449C2.339 169.796 0 172.135 0 175.02V193.306C0 196.192 2.339 198.531 5.22449 198.531H84.8133L58.2139 242.863L67.1734 248.239L96.9989 198.531H122.776V256H133.224V198.531H159.001L188.826 248.239L197.786 242.863L171.187 198.531H250.775C253.661 198.531 256 196.192 256 193.306V175.02C256 172.135 253.661 169.796 250.775 169.796ZM109.714 10.449H146.286V18.2857H109.714V10.449ZM18.2857 28.7347H237.714V169.796H18.2857V28.7347ZM245.551 188.082H10.449V180.245H245.551V188.082Z" fill="#231F20"/>
  <path d="M135.837 99.2653H88.8164V52.2449C114.782 52.2449 135.837 73.2996 135.837 99.2653Z" fill="#AFB6BB"/>
  <path d="M135.837 99.2653C135.837 125.231 114.782 146.286 88.8163 146.286C62.8506 146.286 41.7959 125.231 41.7959 99.2653C41.7959 73.2996 62.8506 52.2449 88.8163 52.2449V99.2653H135.837Z" fill="#43B05C"/>
  <path d="M88.8162 47.0204C60.0083 47.0204 36.5713 70.4574 36.5713 99.2653C36.5713 128.073 60.0083 151.51 88.8162 151.51C117.624 151.51 141.061 128.073 141.061 99.2653C141.061 70.4574 117.624 47.0204 88.8162 47.0204ZM130.274 94.0408H94.0407V57.8074C112.916 60.1736 127.908 75.1658 130.274 94.0408ZM88.8162 141.061C65.7699 141.061 47.0203 122.312 47.0203 99.2653C47.0203 77.9891 63.0035 60.3883 83.5917 57.8074V99.2653C83.5917 102.151 85.9307 104.49 88.8162 104.49H130.274C127.693 125.078 110.092 141.061 88.8162 141.061Z" fill="#231F20"/>
  <path d="M216.817 67.9183H180.245V78.3673H216.817V67.9183Z" fill="#231F20"/>
  <path d="M216.817 83.5919H180.245V94.0408H216.817V83.5919Z" fill="#231F20"/>
  <path d="M216.817 99.2653H180.245V109.714H216.817V99.2653Z" fill="#231F20"/>
  <path d="M203.755 52.2449H180.245V62.6939H203.755V52.2449Z" fill="#231F20"/>
  <path d="M142.143 69.0004L134.754 61.6114L142.591 53.7746C143.571 52.795 144.9 52.2444 146.285 52.2444H169.796V62.6934H148.449L142.143 69.0004Z" fill="#231F20"/>
  <path d="M222.041 122.776H161.959V133.224H222.041V122.776Z" fill="#231F20"/>
  <path d="M222.041 141.061H146.286V151.51H222.041V141.061Z" fill="#231F20"/>
</svg>
