<svg width="135" height="256" viewBox="0 0 135 256" fill="none" xmlns="http://www.w3.org/2000/svg">
  <path d="M80.1507 89.9064C70.6224 89.8787 61.4898 85.9543 54.7392 78.9867C47.9887 72.019 44.1659 62.5716 44.1024 52.6991C44.1244 42.7864 47.9188 33.2829 54.6619 26.2511C58.7147 22.1291 63.6348 19.0371 69.0357 17.2181L74.385 15.7567L131.106 0L115.76 58.7337L114.014 65.5483C112.252 70.6288 109.401 75.2291 105.676 79.0031C102.334 82.4797 98.3616 85.2369 93.9871 87.116C89.6126 88.995 84.9226 89.9589 80.1871 89.9519L80.1507 89.9064Z" fill="#27B7FF"/>
  <path d="M55.6785 255.999C42.4483 256.067 29.6314 251.226 19.5459 242.354C9.46038 233.481 2.77188 221.162 0.69021 207.624C-1.39146 194.086 1.27119 180.223 8.19626 168.543C15.1213 156.862 25.8519 148.134 38.4473 143.938L45.9301 141.879L134.154 117.377L110.383 208.547L108.066 217.353C105.273 225.515 100.782 232.942 94.9128 239.107C89.7761 244.479 83.6593 248.74 76.9186 251.64C70.1779 254.54 62.9478 256.022 55.6491 255.999H55.6785Z" fill="#27B7FF"/>
</svg>
