<svg width="256" height="256" viewBox="0 0 256 256" fill="none" xmlns="http://www.w3.org/2000/svg">
<g clip-path="url(#clip0_63_39)">
<path fill-rule="evenodd" clip-rule="evenodd" d="M105.194 152.473C54.7722 174.577 39.6448 186.361 33.6665 191.653C24.4533 199.806 19.3571 230.196 13.9228 256H128H242.077C236.643 230.196 231.545 199.806 222.333 191.653C216.355 186.361 201.783 174.88 151.361 152.774L105.194 152.473Z" fill="#FFDECC"/>
<path fill-rule="evenodd" clip-rule="evenodd" d="M105.192 152.473C54.7722 174.577 39.6448 186.361 33.6665 191.653C24.4533 199.806 19.3571 230.196 13.9228 256H128H242.075C236.641 230.196 231.545 199.806 222.332 191.653C216.355 186.361 201.783 174.88 151.361 152.774L105.192 152.473Z" fill="#497194"/>
<path fill-rule="evenodd" clip-rule="evenodd" d="M152.482 108.41V164.301C139.016 180.792 116.984 180.221 103.519 164.301V108.41C103.518 78.2308 152.482 78.2308 152.482 108.41Z" fill="#FFDECC"/>
<path fill-rule="evenodd" clip-rule="evenodd" d="M152.482 108.41V145.83C143.217 152.583 134.289 156.366 128 156.366C121.713 156.366 112.781 152.583 103.518 145.83V108.41C103.518 78.2308 152.482 78.2308 152.482 108.41Z" fill="#F7C5AA"/>
<path fill-rule="evenodd" clip-rule="evenodd" d="M128 8.06691C45.831 8.06691 75.3805 107.351 80.7487 115.255C86.6668 123.97 114.724 147.071 128 147.071C141.276 147.071 169.331 123.97 175.249 115.255C180.619 107.351 210.169 8.06691 128 8.06691Z" fill="#FFDECC"/>
<path fill-rule="evenodd" clip-rule="evenodd" d="M149.885 116.861C130.621 117.747 111.571 110.654 99.9213 100.135C100.648 116.076 137.349 128.49 149.885 116.861Z" fill="#F7C5AA"/>
<path fill-rule="evenodd" clip-rule="evenodd" d="M104.984 98.7478C100.968 100.31 97.7199 103.483 96.288 106.683C95.3496 102.325 101.75 96.4027 104.984 98.7478Z" fill="#F7C5AA"/>
<path d="M77.1091 84.21C74.654 76.7527 69.1681 71.8583 64.856 73.278C60.5439 74.6976 59.0385 81.8938 61.4937 89.351C63.9488 96.8083 69.4347 101.703 73.7468 100.283C78.0589 98.8634 79.5643 91.6672 77.1091 84.21Z" fill="#FFDECC"/>
<path d="M194.284 89.3484C196.739 81.8922 195.234 74.6966 190.922 73.2764C186.61 71.8563 181.124 76.7495 178.668 84.2058C176.213 91.662 177.718 98.8577 182.03 100.278C186.342 101.698 191.828 96.8047 194.284 89.3484Z" fill="#FFDECC"/>
<path fill-rule="evenodd" clip-rule="evenodd" d="M90.4418 41.2924C85.6759 67.3311 73.7388 64.9005 74.6869 95.4584C70.8516 71.6424 65.1259 39.9498 81.318 19.0734C94.2558 2.39171 137.108 -9.53962 164.857 10.4742C195.504 17.0217 185.922 79.4198 181.812 91.2151C178.943 72.1126 172.518 64.1545 164.404 41.6946C153.396 49.5866 104.551 51.3469 90.4418 41.2924Z" fill="#FFC65D"/>
<path fill-rule="evenodd" clip-rule="evenodd" d="M128.126 176.456C128.126 176.456 93.9604 184.612 93.9604 186.681C93.9604 188.749 106.96 256.002 106.96 256.002H153.345L158.661 186.979L128.126 176.456Z" fill="#E6E6E6"/>
<path fill-rule="evenodd" clip-rule="evenodd" d="M103.518 153.209V164.301L114.153 256H95.8664L75.7477 215.156L94.9513 202.357L71.4831 191.383L93.0648 157.897L103.518 153.209Z" fill="#86BCEB"/>
<path fill-rule="evenodd" clip-rule="evenodd" d="M152.482 153.267L152.484 164.301L141.742 256H160.029L180.145 215.156L160.944 202.357L184.412 191.383L165.232 158.929L152.482 153.267Z" fill="#86BCEB"/>
<path fill-rule="evenodd" clip-rule="evenodd" d="M103.518 145.83L101.376 154.153L107.366 197.507L128.126 176.456L103.518 145.83Z" fill="white"/>
<path fill-rule="evenodd" clip-rule="evenodd" d="M117.471 187.795L123.401 196.981C126.465 196.981 129.533 196.981 132.597 196.981L138.529 187.795L128.126 176.454L117.471 187.795Z" fill="#9D3421"/>
<path fill-rule="evenodd" clip-rule="evenodd" d="M123.401 196.981L114.959 256H141.041L132.599 196.981H123.401Z" fill="#9D3421"/>
<path fill-rule="evenodd" clip-rule="evenodd" d="M152.482 145.83L154.171 154.019L148.544 197.94L128.126 176.458L152.482 145.83Z" fill="white"/>
<path fill-rule="evenodd" clip-rule="evenodd" d="M60.4124 256H64.3196C64.1447 238.629 64.1447 226.107 64.1447 226.107C64.1447 226.107 62.4136 239.118 60.4124 256Z" fill="#304D66"/>
<path fill-rule="evenodd" clip-rule="evenodd" d="M195.588 256H191.678C191.853 238.629 191.853 226.107 191.853 226.107C191.853 226.107 193.584 239.118 195.588 256Z" fill="#304D66"/>
</g>
<defs>
<clipPath id="clip0_63_39">
<rect width="256" height="256" fill="white"/>
</clipPath>
</defs>
</svg>
