<svg width="256" height="256" viewBox="0 0 256 256" fill="none" xmlns="http://www.w3.org/2000/svg">
  <path d="M115.155 85.3197H119.423C121.778 85.3197 123.691 83.4075 123.691 81.0518C123.691 78.696 121.778 76.7839 119.423 76.7839H115.155C112.799 76.7839 110.887 78.696 110.887 81.0518C110.887 83.4075 112.799 85.3197 115.155 85.3197Z" fill="black"/>
  <path d="M51.1341 51.1751H55.402C57.7577 51.1751 59.6699 49.263 59.6699 46.9072C59.6699 44.5514 57.7577 42.6393 55.402 42.6393H51.1341C48.7783 42.6393 46.8662 44.5514 46.8662 46.9072C46.8662 49.263 48.7783 51.1751 51.1341 51.1751Z" fill="black"/>
  <path d="M93.9811 92.8016C94.7963 101.005 98.36 108.226 98.531 108.568C102.402 116.306 108.249 128 127.959 128C147.669 128 153.516 116.306 157.383 108.568C157.558 108.226 161.122 101.005 161.937 92.8016C164.579 91.3506 166.372 88.5377 166.372 85.3197V76.7834C166.372 73.6294 164.651 70.872 162.104 69.3955V68.2476C162.104 54.1246 150.618 42.6393 136.495 42.6393H119.423C105.3 42.6393 93.815 54.1246 93.815 68.2476V69.3955C91.2672 70.8725 89.5471 73.6294 89.5471 76.7834V85.3197C89.5466 88.5377 91.3392 91.3501 93.9811 92.8016ZM98.0829 76.7834C100.439 76.7834 102.351 74.8713 102.351 72.5155V68.2476C102.351 58.8321 110.008 51.1756 119.423 51.1756H136.495C145.91 51.1756 153.567 58.8326 153.567 68.2476V72.5155C153.567 74.8713 155.479 76.7834 157.835 76.7834V85.3197C155.479 85.3197 153.567 87.2318 153.567 89.5875C153.567 96.9714 149.785 104.679 149.747 104.752C145.304 113.638 141.386 119.464 127.959 119.464C114.531 119.464 110.609 113.638 106.17 104.756C106.131 104.679 102.35 96.9709 102.35 89.5875C102.35 87.2318 100.438 85.3197 98.0824 85.3197V76.7834H98.0829Z" fill="black"/>
  <path d="M59.7298 106.011L56.1832 127.274C55.7946 129.601 57.3611 131.798 59.6873 132.187C59.9264 132.225 60.161 132.242 60.3961 132.242C62.4447 132.242 64.2543 130.765 64.5999 128.679L67.5494 111.022C73.7084 111.163 79.4017 111.696 84.5279 112.618C86.8581 113.041 89.0649 111.487 89.483 109.169C89.9011 106.848 88.3561 104.628 86.0389 104.214C79.4957 103.04 72.1464 102.447 64.1908 102.447C62.0391 102.469 60.084 103.873 59.7298 106.011Z" fill="black"/>
  <path d="M196.248 51.1751H200.516C202.871 51.1751 204.783 49.263 204.783 46.9072C204.783 44.5514 202.871 42.6393 200.516 42.6393H196.248C193.892 42.6393 191.98 44.5514 191.98 46.9072C191.98 49.263 193.892 51.1751 196.248 51.1751Z" fill="black"/>
  <path d="M136.495 85.3197H140.763C143.119 85.3197 145.031 83.4075 145.031 81.0518C145.031 78.696 143.119 76.7839 140.763 76.7839H136.495C134.139 76.7839 132.227 78.696 132.227 81.0518C132.227 83.4075 134.139 85.3197 136.495 85.3197Z" fill="black"/>
  <path d="M217.588 51.1751H221.856C224.212 51.1751 226.124 49.263 226.124 46.9072C226.124 44.5514 224.212 42.6393 221.856 42.6393H217.588C215.232 42.6393 213.32 44.5514 213.32 46.9072C213.32 49.263 215.232 51.1751 217.588 51.1751Z" fill="black"/>
  <path d="M175.074 58.657C175.889 66.8602 179.453 74.0815 179.623 74.4231C183.495 82.1611 189.341 93.8554 209.051 93.8554C228.761 93.8554 234.609 82.1611 238.479 74.4231C238.65 74.0815 242.214 66.8602 243.029 58.657C245.671 57.206 247.464 54.3931 247.464 51.1751V42.6388C247.464 39.4848 245.744 36.7274 243.196 35.2509V34.1031C243.196 19.98 231.711 8.49475 217.588 8.49475H200.516C186.393 8.49475 174.907 19.98 174.907 34.1031V35.2509C172.359 36.7279 170.639 39.4848 170.639 42.6388V51.1751C170.639 54.3931 172.432 57.2055 175.074 58.657ZM179.176 42.6388C181.531 42.6388 183.444 40.7267 183.444 38.3709V34.1031C183.444 24.6875 191.101 17.031 200.516 17.031H217.588C227.003 17.031 234.66 24.688 234.66 34.1031V38.3709C234.66 40.7267 236.572 42.6388 238.928 42.6388V51.1751C236.572 51.1751 234.66 53.0872 234.66 55.443C234.66 62.8269 230.878 70.5349 230.84 70.6074C226.397 79.4933 222.479 85.3192 209.051 85.3192C195.62 85.3192 191.702 79.4933 187.263 70.6114C187.224 70.5344 183.443 62.8264 183.443 55.443C183.443 53.0872 181.531 51.1751 179.175 51.1751V42.6388H179.176Z" fill="black"/>
  <path d="M166.358 109.165C166.773 111.483 168.966 113.023 171.314 112.618C176.448 111.696 182.163 111.162 188.339 111.021L191.288 128.678C191.634 130.765 193.443 132.242 195.492 132.242C195.726 132.242 195.962 132.225 196.201 132.186C198.527 131.798 200.093 129.596 199.705 127.274L196.158 106.01C195.796 103.872 193.947 102.464 191.694 102.447C183.721 102.447 176.359 103.04 169.807 104.214C167.49 104.628 165.945 106.848 166.358 109.165Z" fill="black"/>
  <path d="M25.4658 106.015C25.1116 103.869 23.131 102.464 20.9888 102.447C14.8473 102.447 9.03393 102.806 3.7117 103.506C1.37294 103.813 -0.27059 105.96 0.0370101 108.294C0.348611 110.633 2.49981 112.268 4.82556 111.969C8.81635 111.444 13.1097 111.124 17.6467 111.021L29.8532 184.189C30.1988 186.276 32.0084 187.752 34.057 187.752C34.2876 187.752 34.5267 187.735 34.7658 187.693C37.0875 187.309 38.658 185.107 38.2699 182.78L25.4658 106.015Z" fill="black"/>
  <path d="M149.577 136.592C147.387 136.596 145.373 138.077 145.07 140.279L132.265 234.125C131.95 236.46 133.58 238.611 135.919 238.931C136.116 238.957 136.307 238.97 136.5 238.97C138.604 238.97 140.431 237.42 140.725 235.278L153.022 145.167C171.212 145.611 185.254 149.554 191.874 156.157C194.819 159.098 196.249 162.453 196.249 166.413V234.701C196.249 237.057 198.161 238.969 200.517 238.969C202.872 238.969 204.784 237.057 204.784 234.701V166.412C204.784 160.16 202.467 154.675 197.9 150.117C189.158 141.389 172.005 136.592 149.577 136.592Z" fill="black"/>
  <path d="M136.495 145.072C136.495 140.365 132.667 136.536 127.959 136.536C123.252 136.536 119.423 140.364 119.423 145.072C119.423 148.218 121.151 150.94 123.691 152.421V183.484C123.691 185.84 125.603 187.752 127.959 187.752C130.314 187.752 132.226 185.84 132.226 183.484V152.421C134.767 150.941 136.495 148.218 136.495 145.072Z" fill="black"/>
  <path d="M174.908 187.753C172.552 187.753 170.64 189.665 170.64 192.021V243.237C170.64 245.593 172.552 247.505 174.908 247.505C177.264 247.505 179.176 245.593 179.176 243.237V192.021C179.176 189.665 177.264 187.753 174.908 187.753Z" fill="black"/>
  <path d="M221.873 110.928C221.873 106.22 218.04 102.392 213.328 102.392C208.616 102.392 204.783 106.22 204.783 110.928C204.783 114.073 206.512 116.792 209.051 118.273V149.34C209.051 151.696 210.963 153.608 213.319 153.608C215.675 153.608 217.587 151.696 217.587 149.34V118.286C220.136 116.805 221.873 114.077 221.873 110.928Z" fill="black"/>
  <path d="M252.291 103.506C246.96 102.806 241.139 102.447 234.98 102.447C232.773 102.447 230.857 103.869 230.499 106.011L217.673 182.78C217.284 185.107 218.851 187.309 221.177 187.693C221.416 187.735 221.651 187.752 221.886 187.752C223.934 187.752 225.744 186.275 226.09 184.189L238.318 111.021C242.867 111.124 247.178 111.444 251.173 111.969C253.491 112.267 255.654 110.633 255.961 108.294C256.273 105.955 254.626 103.813 252.291 103.506Z" fill="black"/>
  <path d="M29.7938 51.1751H34.0616C36.4174 51.1751 38.3295 49.263 38.3295 46.9072C38.3295 44.5514 36.4174 42.6393 34.0616 42.6393H29.7938C27.438 42.6393 25.5259 44.5514 25.5259 46.9072C25.5259 49.263 27.438 51.1751 29.7938 51.1751Z" fill="black"/>
  <path d="M42.5978 102.392C37.8903 102.392 34.0615 106.22 34.0615 110.928C34.0615 114.073 35.7901 116.796 38.3294 118.277V149.34C38.3294 151.696 40.2415 153.608 42.5973 153.608C44.9531 153.608 46.8652 151.696 46.8652 149.34V118.277C49.4045 116.796 51.1331 114.073 51.1331 110.928C51.1341 106.22 47.3058 102.392 42.5978 102.392Z" fill="black"/>
  <path d="M8.61973 58.657C9.43049 66.8602 12.9986 74.0815 13.1692 74.4231C17.0405 82.1611 22.8874 93.8554 42.5972 93.8554C62.3071 93.8554 68.1545 82.1611 72.0213 74.4231C72.1963 74.0815 75.76 66.8602 76.5753 58.657C79.2171 57.206 81.0097 54.3931 81.0097 51.1751V42.6388C81.0097 39.4848 79.2896 36.7274 76.7418 35.2509V34.1031C76.7418 19.98 65.2566 8.49475 51.1335 8.49475H34.062C19.9389 8.49475 8.45367 19.98 8.45367 34.1031V35.2509C5.90585 36.7279 4.18579 39.4848 4.18579 42.6388V51.1751C4.18529 54.3931 5.97787 57.2055 8.61973 58.657ZM12.7216 42.6388C15.0773 42.6388 16.9894 40.7267 16.9894 38.3709V34.1031C16.9894 24.6875 24.6464 17.031 34.0615 17.031H51.1335C60.5491 17.031 68.2055 24.688 68.2055 34.1031V38.3709C68.2055 40.7267 70.1177 42.6388 72.4734 42.6388V51.1751C70.1177 51.1751 68.2055 53.0872 68.2055 55.443C68.2055 62.8269 64.4238 70.5349 64.3858 70.6074C59.9429 79.4933 56.0246 85.3192 42.5972 85.3192C29.1659 85.3192 25.2521 79.4933 20.8087 70.6114C20.7702 70.5344 16.9889 62.8264 16.9889 55.443C16.9889 53.0872 15.0768 51.1751 12.7211 51.1751V42.6388H12.7216Z" fill="black"/>
  <path d="M81.0103 187.753C78.6546 187.753 76.7424 189.665 76.7424 192.021V243.237C76.7424 245.593 78.6546 247.505 81.0103 247.505C83.3661 247.505 85.2782 245.593 85.2782 243.237V192.021C85.2787 189.665 83.3666 187.753 81.0103 187.753Z" fill="black"/>
  <path d="M110.848 140.283C110.558 138.171 108.757 136.596 106.628 136.592C84.2032 136.622 66.7981 141.351 58.0188 150.117C53.4478 154.676 51.1345 160.16 51.1345 166.412V234.701C51.1345 237.057 53.0466 238.969 55.4024 238.969C57.7582 238.969 59.6703 237.057 59.6703 234.701V166.412C59.6703 162.452 61.1003 159.097 64.0492 156.156C70.6649 149.553 84.7064 145.61 102.897 145.17L115.193 235.277C115.488 237.42 117.314 238.969 119.414 238.969C119.611 238.969 119.803 238.956 119.999 238.93C122.338 238.61 123.968 236.459 123.653 234.124L110.848 140.283Z" fill="black"/>
</svg>
