<svg width="256" height="210" viewBox="0 0 256 210" fill="none" xmlns="http://www.w3.org/2000/svg">
	<path d="M250.199 24.2357C246.178 26.0226 242.043 27.531 237.818 28.7559C242.82 23.088 246.633 16.4191 248.961 9.12157C249.483 7.48592 248.942 5.69547 247.6 4.62541C246.26 3.55485 244.398 3.4266 242.922 4.30279C233.95 9.63456 224.27 13.4664 214.12 15.7068C203.895 5.69698 190.009 0 175.653 0C145.35 0 120.696 24.7006 120.696 55.0611C120.696 57.4522 120.847 59.8302 121.146 62.1753C83.5432 58.8674 48.5842 40.3492 24.5782 10.8449C23.7227 9.79337 22.4047 9.22627 21.0552 9.33498C19.7052 9.44069 18.4917 10.2037 17.8097 11.3764C12.9407 19.747 10.3667 29.321 10.3667 39.0622C10.3667 52.3298 15.0942 64.9175 23.4457 74.754C20.9062 73.8728 18.4422 72.7717 16.0902 71.4637C14.8277 70.7593 13.2867 70.7703 12.0322 71.4907C10.7772 72.2116 9.99021 73.5367 9.95671 74.9854C9.95071 75.2294 9.95071 75.4734 9.95071 75.7209C9.95071 95.5245 20.5887 113.354 36.8532 123.072C35.4557 122.932 34.0597 122.729 32.6722 122.464C31.2417 122.19 29.7712 122.692 28.8067 123.785C27.8407 124.878 27.5207 126.4 27.9662 127.79C33.9862 146.622 49.4857 160.473 68.2232 164.696C52.6822 174.449 34.9102 179.557 16.2537 179.557C12.3607 179.557 8.44571 179.328 4.61421 178.874C2.71071 178.647 0.890715 179.773 0.242216 181.587C-0.406284 183.402 0.281216 185.425 1.90022 186.465C25.8677 201.862 53.5807 210 82.0422 210C137.994 210 172.996 183.565 192.505 161.388C216.834 133.735 230.786 97.1336 230.786 60.9689C230.786 59.458 230.763 57.9326 230.717 56.4117C240.315 49.1662 248.579 40.3973 255.303 30.3189C256.325 28.7885 256.214 26.7651 255.031 25.3563C253.85 23.9451 251.88 23.4892 250.199 24.2357Z" fill="#73A1FB"/>
</svg>
