<svg width="256" height="256" viewBox="0 0 256 256" fill="none" xmlns="http://www.w3.org/2000/svg">
	<path d="M218.516 37.4838C194.33 13.2973 162.186 0 128 0C93.8143 0 61.6703 13.2973 37.4838 37.4838C13.2973 61.6703 0 93.8143 0 128C0 162.186 13.2973 194.33 37.4838 218.516C61.6703 242.703 93.8143 256 128 256C162.186 256 194.33 242.703 218.516 218.516C242.703 194.33 256 162.186 256 128C256 93.8143 242.703 61.6703 218.516 37.4838ZM128 241.865C65.2303 241.865 14.135 190.77 14.135 128C14.135 65.2303 65.2303 14.135 128 14.135C190.77 14.135 241.865 65.2303 241.865 128C241.865 190.77 190.77 241.865 128 241.865Z" fill="#0067C0"/>
	<path d="M128 106.379C146.375 106.379 161.296 91.4061 161.296 73.083C161.296 54.7599 146.375 39.735 128 39.735C109.625 39.735 94.7043 54.7076 94.7043 73.0307C94.7043 91.3538 109.625 106.379 128 106.379ZM128 53.8699C138.575 53.8699 147.161 62.4556 147.161 73.0307C147.161 83.6057 138.575 92.1914 128 92.1914C117.425 92.1914 108.839 83.6057 108.839 73.0307C108.839 62.4556 117.425 53.8699 128 53.8699Z" fill="#0067C0"/>
	<path d="M178.467 146.847C166.793 129.675 149.831 120.933 128 120.933C106.169 120.933 89.2074 129.623 77.5329 146.847C68.8425 159.62 63.2933 177.054 61.0945 198.518C60.6757 202.392 63.5027 205.899 67.3767 206.266C71.2507 206.685 74.7583 203.858 75.1248 199.984C79.5747 156.898 97.3742 135.067 128 135.067C158.626 135.067 176.425 156.898 180.875 199.984C181.242 203.596 184.33 206.318 187.89 206.318C188.152 206.318 188.362 206.318 188.623 206.266C192.497 205.847 195.324 202.392 194.906 198.518C192.707 177.001 187.157 159.62 178.467 146.847Z" fill="#0067C0"/>
</svg>
