<svg width="256" height="256" viewBox="0 0 256 256" fill="none" xmlns="http://www.w3.org/2000/svg">
  <path d="M220.442 107.985C210.071 121.897 195.034 131.341 177.351 132.618C192.173 149.898 201.756 171.797 203.6 195.83C204.291 204.847 203.805 209.237 203.081 212.864C212.023 211.474 220.235 209.453 227.29 206.855C251.019 198.118 256 185.205 256 175.911C256 147.812 241.917 122.944 220.442 107.985Z" fill="black"/>
  <path d="M154.047 111.007C159.971 114.321 166.494 116.069 173.266 116.069C198.779 116.069 218.422 91.4081 218.422 62.2505C218.422 33.0901 198.776 8.43159 173.266 8.43159C162.837 8.43159 152.997 12.5711 145.029 20.2027C156.179 34.4818 162.534 53.0874 162.534 72.9027C162.534 86.0327 159.748 99.111 154.047 111.007Z" fill="black"/>
  <path d="M144.738 125.967C131.067 143.256 112.596 151.843 93.6126 151.843C73.4427 151.843 55.3737 142.264 42.4869 125.967C16.925 142.697 0 171.581 0 204.347C0 214.438 5.52568 228.501 31.8498 238.193C48.2698 244.239 70.2044 247.568 93.6126 247.568C117.021 247.568 138.955 244.239 155.375 238.193C181.699 228.501 187.225 214.438 187.225 204.347C187.225 171.581 170.301 142.697 144.738 125.967Z" fill="black"/>
  <path d="M93.6125 135.143C123.119 135.143 145.833 106.622 145.833 72.9032C145.833 39.1841 123.116 10.6634 93.6125 10.6634C64.1108 10.6634 41.3918 39.1786 41.3918 72.9032C41.3918 106.628 64.113 135.143 93.6125 135.143Z" fill="black"/>
</svg>
