<svg width="256" height="256" viewBox="0 0 256 256" fill="none" xmlns="http://www.w3.org/2000/svg">
	<path d="M128 256C198.692 256 256 198.692 256 128C256 57.3075 198.692 0 128 0C57.3075 0 0 57.3075 0 128C0 198.692 57.3075 256 128 256Z" fill="#2995CC"/>
	<path d="M116 123.258C116 103.76 116 84.264 116 64.766C96 67.928 79.732 71.078 60 74.238C60 94.128 60 104.074 60 123.966C79.732 123.736 96 123.49 116 123.258Z" fill="#F5F5F5"/>
	<path d="M124 123.142C144 122.902 168.268 122.674 188 122.432C188 99.542 188 76.65 188 53.76C168.268 56.922 144 60.07 124 63.234C124 83.204 124 103.172 124 123.142Z" fill="#F5F5F5"/>
	<path d="M124.8 132.86C124.792 152.828 124.8 172.798 124.8 192.768C144.53 195.93 168.264 199.08 188 202.24C188 179.35 188 156.456 188 133.568C168.268 133.334 144.536 133.096 124.8 132.86Z" fill="#F5F5F5"/>
	<path d="M116 132.742C96 132.504 79.732 132.27 60 132.032C60 151.924 60 161.868 60 181.76C79.732 184.924 96 188.07 116 191.232C116 171.736 116 152.24 116 132.742Z" fill="#F5F5F5"/>
</svg>
